<?xml version="1.0" encoding="UTF-8" standalone="no"?>
<!-- Created with Inkscape (http://www.inkscape.org/) -->

<svg
   width="383.05768mm"
   height="142.35136mm"
   viewBox="0 0 1447.7771 538.02092"
   version="1.1"
   id="svg1"
   xml:space="preserve"
   inkscape:export-filename="bitmap2.svg"
   inkscape:export-xdpi="96"
   inkscape:export-ydpi="96"
   sodipodi:docname="orokami logo.svg"
   inkscape:version="1.4 (e7c3feb1, 2024-10-09)"
   xmlns:inkscape="http://www.inkscape.org/namespaces/inkscape"
   xmlns:sodipodi="http://sodipodi.sourceforge.net/DTD/sodipodi-0.dtd"
   xmlns="http://www.w3.org/2000/svg"
   xmlns:svg="http://www.w3.org/2000/svg"><sodipodi:namedview
     id="namedview1"
     pagecolor="#505050"
     bordercolor="#eeeeee"
     borderopacity="1"
     inkscape:showpageshadow="0"
     inkscape:pageopacity="0"
     inkscape:pagecheckerboard="0"
     inkscape:deskcolor="#505050"
     inkscape:document-units="mm"
     inkscape:zoom="0.93539571"
     inkscape:cx="560.72526"
     inkscape:cy="369.89693"
     inkscape:window-width="2176"
     inkscape:window-height="1153"
     inkscape:window-x="0"
     inkscape:window-y="25"
     inkscape:window-maximized="0"
     inkscape:current-layer="layer1"><inkscape:page
       x="0"
       y="0"
       width="1447.7771"
       height="538.02094"
       id="page2"
       margin="0"
       bleed="0" /></sodipodi:namedview><defs
     id="defs1" /><g
     inkscape:label="Layer 1"
     inkscape:groupmode="layer"
     id="layer1"
     transform="translate(161.19621,-131.11238)"><path
       style="fill:#1a1b17;stroke:none;stroke-width:1.37567"
       d="m 1100.4373,131.11239 -5.4966,5.50874 c -0.5842,7.66475 -1.0047,12.32183 7.3288,14.68998 l 5.3383,71.61372 -1.6738,75.2862 -40.3087,7.28975 -40.3087,-7.28975 v 7.34502 c -8.4652,1.17421 -4.8024,10.9926 1.8322,12.85373 -6.2884,22.96589 2.792,53.69223 5.1772,77.12246 3.5547,34.9192 -15.321,81.45295 13.5351,109.76261 10.9292,10.72217 26.3118,7.24334 39.7546,4.7111 5.1959,-0.97875 16.4766,-5.15077 20.2419,0.12896 4.5855,6.4299 0.079,24.46198 0.076,32.29732 -0.01,26.41961 -3.0462,52.56576 -3.6912,78.95871 -0.3327,13.61226 -3.4135,24.4455 4.808,36.69807 15.7902,23.53209 30.9912,2.65059 32.8442,-17.27861 4.3663,-46.96006 14.4165,-101.12268 4.5155,-147.95689 15.346,-0.67034 30.3385,-8.24352 45.8053,-6.82217 9.1839,0.84393 18.2278,7.52173 27.0011,1.28931 7.8244,-5.55827 10.8298,-17.39168 14.7383,-25.68338 10.9199,-23.16606 18.809,-45.2628 25.5463,-69.84975 5.3591,-19.55745 8.6703,-39.8918 16.504,-58.68769 3.8894,-9.3322 13.9249,-20.65745 12.4241,-31.18933 -1.6724,-11.73523 -15.5913,-20.539 -24.4734,-26.65385 -36.9992,-25.47224 -70.6482,-11.25868 -108.3847,6.42821 0.5922,-28.7546 6.5732,-60.11439 12.8522,-88.13995 2.9634,-13.22628 12.3363,-27.36261 3.3661,-40.31813 -16.5957,-23.97036 -45.419,-18.29664 -69.3525,-22.11438 M -95.997223,529.57842 c -13.343417,-3.27127 -17.799657,1.6381 -18.391397,14.68999 -0.24617,5.42939 -2.69995,13.80392 4.15924,15.94255 12.898593,4.02149 31.162787,0.30597 44.60222,0.30597 35.663809,0 71.3837291,-0.18359 107.045855,-0.34431 10.672887,-0.0481 45.11834,-8.06922 48.878764,6.33049 4.825992,18.48017 -19.997825,14.50114 -30.556641,14.83456 -26.291811,0.83027 -52.5625066,-0.47317 -78.785131,0.68434 -7.825669,0.34542 -18.111569,-1.79892 -25.543537,0.77646 -7.260568,2.51611 -10.744561,18.55863 -4.545158,23.7594 5.33617,4.47641 19.942534,1.98171 26.424276,1.97925 9.090165,-0.004 18.0964839,-0.97819 27.1721529,-0.49739 14.1356821,0.749 28.3016971,0.49739 42.4519171,0.49739 l -1.832224,11.01749 c -8.72383,0.0185 -41.0687946,-2.09143 -45.23134305,6.09245 -3.05867415,6.01375 -0.0842433,16.54528 -0.57396212,23.28753 L 2.9422415,669.13333 C 61.587401,636.53465 121.99829,607.8566 180.66682,575.16444 c 14.14664,-7.88308 27.51226,-16.96434 40.30017,-26.87365 4.64047,-3.59583 11.79239,-9.33522 9.55839,-16.28818 -2.38617,-7.42636 -31.84022,-4.78967 -38.86529,-6.0967 V 430.42097 367.9885 c 18.89911,7.34635 37.86324,13.01323 56.79858,19.70853 4.92407,1.74109 15.51555,9.1336 20.52895,5.91402 3.80802,-2.44551 3.0137,-10.74282 3.64604,-14.63196 2.57052,-15.8094 2.62653,-33.80753 -0.60081,-49.55182 -12.55643,-61.25522 -42.94828,-121.63535 -100.52709,-151.67189 -130.998916,-68.33683 -312.24178,6.91508 -331.1059,160.85313 -6.37787,52.04573 6.6891,105.7678 33.28518,150.57242 8.7134,14.6789 20.96953,26.29252 30.317737,40.39749 M 886.0685,182.52735 c 6.7999,8.9209 24.70366,18.79735 27.61748,29.45362 7.26847,26.58157 -32.24498,60.77979 -44.10739,80.72132 l 20.15433,-14.68998 -7.32884,20.19872 c 28.16007,-6.10544 69.83238,-29.60862 91.44667,-48.59548 6.3954,-5.61802 19.4328,-14.64146 21.56661,-23.05084 2.78489,-10.97502 -6.35078,-18.15852 -12.40557,-25.91292 -19.08524,-24.44271 -70.57403,-28.18794 -96.94329,-18.12444 m 7.32885,0 -1.83221,1.83625 1.83221,-1.83625 m 12.82548,1.83625 -1.83221,1.83624 1.83221,-1.83624 M 248.45867,356.97101 178.83461,332.26233 45.083114,283.12295 -2.554387,264.79162 l -18.555419,-2.48091 -3.43115,34.06408 v 99.15745 c -11.232078,-0.88843 -41.823702,-6.02418 -49.582807,4.25619 -4.515949,5.98327 -1.829752,13.01883 -1.719125,19.61505 l 45.805304,1.83625 1.832209,104.66618 C -48.813895,525.66427 -67.604347,505.6211 -80.782503,491.06257 -119.92493,447.82017 -137.25273,380.2005 -121.11521,323.91853 -85.3684,199.24625 78.173249,147.34072 180.65978,226.41173 c 19.37906,14.95148 35.35256,39.30104 46.66201,60.78181 11.09422,21.07193 21.07063,45.67199 21.13688,69.77747 m 703.56947,-134.04618 -1.83221,1.83624 1.83221,-1.83624 m -1084.6696,51.41498 -1.83222,1.83624 1.83222,-1.83624 m -1.83222,3.6725 -7.32885,16.52623 h -1.83221 l 5.49664,-16.52623 h 3.66442 m 1055.35422,97.32118 c -8.8957,41.41962 -43.31331,85.84958 -68.07613,119.3562 -9.35721,12.66119 -29.56577,24.97069 -32.69555,40.39747 37.72855,-0.33803 84.38251,-42.06775 98.93945,-75.2862 h 1.83223 c -0.004,30.78585 -7.65987,63.39709 -13.22988,93.62178 -2.60226,14.1211 -8.96736,21.43069 -4.66954,36.82418 4.35933,15.61393 13.56703,43.3501 34.38933,40.86921 24.13678,-2.87564 17.78432,-29.63675 16.46441,-46.37796 -3.95037,-50.10469 0.0256,-100.41561 0.0256,-150.64471 12.20615,9.34644 23.46414,32.76042 38.47789,36.67253 19.81135,5.16221 32.95195,-19.49019 12.82405,-29.32753 3.5268,-4.07687 6.4538,-7.77178 8.4329,-12.85655 1.3563,-3.48465 2.5174,-7.31282 3.0876,-11.01469 1.2423,-8.06418 -4.413,-22.35238 -14.9503,-18.98304 -7.66737,2.45165 -31.4953,28.18446 -39.98348,5.61778 -2.14377,-5.69927 5.07459,-14.79713 7.52678,-19.68721 8.89278,-17.73374 18.6764,-34.68028 29.22638,-51.41499 4.06842,-6.45353 10.02242,-14.36193 5.48092,-22.00808 -4.78746,-8.06025 -21.59989,-23.89543 -31.77379,-22.92196 -9.52014,0.91095 -19.21039,17.47901 -27.51003,22.79587 -23.73735,15.20645 -53.42411,30.72455 -80.61732,38.37565 -11.2279,3.15907 -34.89513,-1.88635 -42.63003,8.70367 -3.92432,5.37281 3.43506,12.81463 5.93064,17.28858 8.771,15.72434 17.6922,27.34031 36.69939,30.07419 19.32422,2.77948 42.06147,-20.0369 56.79857,-30.07419 M -0.72212279,292.70229 120.20389,339.19513 l 52.02859,21.1155 2.93777,22.36787 v 60.59621 l -4.45897,23.37811 -26.68863,0.49313 H 72.566366 v 60.59621 H -0.72219117 L -0.51011962,452.76763 2.9860863,424.18396 37.754276,421.23973 H 140.35814 v -25.70749 l -142.912527,1.83625 c 0,-30.66315 -8.319052,-75.77542 1.83219583,-104.6662 m -141.08033883,3.6725 -3.66442,12.85375 h -1.83221 l 5.49663,-12.85375 m 1156.12583,3.6725 v 3.6725 h 3.6645 l -3.6645,-3.6725 m -1162.2332,12.2417 -0.61073,1.2241 0.61073,-1.2241 m 1363.7767,0.61205 c -0.1848,32.72577 -9.4839,66.38055 -19.3018,97.39347 -3.1557,9.96779 -6.4977,26.28031 -14.8459,33.24089 -8.6369,7.20109 -26.6584,5.7756 -37.3087,10.75681 0,-9.80853 -2.4828,-23.57009 2.8812,-32.24632 9.5352,-15.42309 60.6985,-38.12739 28.2595,-55.7874 -3.4812,-1.89509 -6.9895,-3.26352 -10.9864,-3.41606 -6.0463,-0.23066 -12.2317,1.3476 -18.3221,1.47357 l 3.6645,-36.72498 65.9597,-14.68998 m -1365.60892,4.89669 -0.61072,1.2241 0.61072,-1.2241 m -1.22147,9.79329 -1.83221,1.83625 1.83221,-1.83625 m 0,3.6725 -1.83221,1.83624 1.83221,-1.83624 m -1.83221,3.6725 -1.83221,1.83624 1.83221,-1.83624 m 520.34825,1.83624 c -15.95093,25.89948 1.71469,61.98092 -11.93481,87.72203 -7.81362,14.73539 -39.06501,9.71696 -51.80098,18.68696 -12.2551,8.63139 -3.7399,26.55824 6.96406,31.81695 13.75715,6.75861 28.06297,-0.55287 42.11404,-2.34351 -0.001,12.78426 2.36811,39.02971 -6.29118,48.98081 -16.23617,18.65836 -57.27206,28.85221 -63.86732,55.68672 -2.04065,8.30315 7.21468,17.0065 7.8633,25.70614 24.33751,-2.66582 36.7262,45.33845 67.79043,30.18054 14.10176,-6.88087 16.35325,-21.7744 18.78158,-35.68928 2.50028,-14.32731 -1.62001,-45.44066 9.28548,-56.00705 5.05624,-4.89905 13.32792,-6.74372 19.57185,-9.69555 20.71209,-9.7914 83.43684,-37.72694 86.12528,7.99964 1.76204,29.96982 -34.61908,51.16379 -56.80988,61.99042 -13.31126,6.49446 -36.18679,5.49821 -25.65096,25.09253 9.92509,-3.07537 15.93736,2.12898 25.65096,2.07004 22.11134,-0.13403 48.82397,-10.08659 65.36304,-24.63638 45.97137,-40.44219 32.56867,-110.2878 -28.71879,-124.25289 -28.439,-6.48021 -59.96849,13.41368 -86.11396,21.9543 0,-10.65011 -1.89871,-29.25323 4.76996,-38.16874 12.8067,-17.12159 45.31102,-16.24056 55.46965,-39.11803 4.34615,-9.78756 -8.71754,-23.6269 -18.12557,-24.22124 -11.74903,-0.74216 -23.82168,8.3678 -34.78521,11.5318 0,-28.49963 8.59369,-64.81094 -25.65097,-75.28621 m -522.18046,1.83625 1.83221,7.34501 h -1.83221 v -7.34501 m 1264.22641,0 c -0.018,31.71822 -6.8991,36.31065 -38.4765,40.3975 l 1.8831,-28.08922 36.5934,-12.30828 m -498.36172,27.54374 c 2.6877,34.12818 22.89359,53.64629 54.96635,34.88873 -10.40906,34.18209 -45.29413,66.84423 -67.9389,93.62181 -11.43846,13.52597 -28.37899,27.65894 -20.47947,47.74101 4.2385,10.77496 18.18452,15.44851 27.43224,8.27164 31.104,-24.13899 79.64508,-65.03834 123.28137,-57.21702 20.502,3.67473 24.67357,22.36179 19.6143,39.7925 -7.86328,27.09161 -28.55899,48.96151 -52.59413,62.95248 -18.98303,11.04999 -36.77062,21.79874 -56.79858,30.69621 10.37731,14.25491 54.29214,0.13998 67.79185,-5.49038 30.73853,-12.81988 63.97377,-32.87359 78.71019,-64.28709 21.69512,-46.24716 -15.51945,-94.83792 -64.0525,-95.45098 -18.39928,-0.23244 -36.27453,6.26615 -53.13414,12.81977 12.53272,-22.14974 29.95639,-43.00636 46.30853,-62.43246 7.07689,-8.40724 20.22199,-19.1756 24.04219,-29.40688 7.26757,-19.4643 -20.90269,-36.60169 -37.37091,-36.42752 -14.77187,0.15622 -27.02502,11.10278 -40.30866,16.13531 -17.91117,6.78564 -31.4812,6.26359 -49.46973,3.79287 M 239.29761,381.4543 c 1.41705,0 0.29344,0.91419 -0.61075,0.61216 l 0.61075,-0.61216 m 5.49664,0 c 1.41687,0 0.29361,0.91431 -0.61076,0.61216 l 0.61076,-0.61216 m 5.49664,-0.61205 3.66441,1.83625 v 1.83625 l -3.66441,-3.6725 m 9.16105,3.6725 -1.83221,1.83625 1.83221,-1.83625 m -3.66442,1.83625 -1.83222,1.83624 1.83222,-1.83624 m 220.97805,5.55974 c -6.88482,5.55593 1.84066,18.62789 5.19412,23.79334 8.65381,13.3295 39.07739,48.15703 57.43617,35.10401 31.77499,-22.59176 -21.14456,-53.44152 -39.92412,-57.88296 -6.056,-1.43222 -17.11632,-5.52535 -22.70617,-1.01439 m 627.33613,16.47524 c -0.2139,18.14663 -21.145,36.14521 -36.6442,44.06999 l 3.6644,-44.06999 h 32.9798 m 0,45.90623 1.8323,9.18125 -20.1544,7.34499 18.3221,-16.52624 m -1194.602285,29.37997 43.973088,42.23373 v 1.83625 c -13.217594,-5.18899 -45.286439,-28.06936 -43.973088,-44.06998 m 436.066505,78.95871 c -0.0475,17.26998 -14.29666,49.14857 -29.3154,20.19875 l 29.3154,-20.19875 m 75.12069,51.41498 v 1.83625 1.83625 l -5.49663,1.83624 h -1.83221 l 1.83221,-5.50874 h 5.49663 m 5.49664,1.83625 -1.83221,1.83625 1.83221,-1.83625 m 699.90505,49.57871 -1.8322,1.83626 1.8322,-1.83626"
       id="path1"
       sodipodi:nodetypes="cccccccccsssscssscssssssscscccscsssssccccccsccssscccsssssssccscccsssccccccccccccccscccsssscccccccccccccscccsssscscsssssssssssssccccccccccccccccccccccccccccccsscsssccccccccccccccccssscsscssscsscssscsssccccccccccccssssssccsscsssscccccccccccccccccccssccccccccccccccccccccccccccccc" /></g></svg>
