<?xml version="1.0" encoding="UTF-8" standalone="no"?>
<!-- Creator: CorelDRAW 2017 -->

<svg
   xml:space="preserve"
   width="4994.4062"
   height="1151.2167"
   version="1.1"
   style="clip-rule:evenodd;fill-rule:evenodd;image-rendering:optimizeQuality;shape-rendering:geometricPrecision;text-rendering:geometricPrecision"
   viewBox="0 0 5006.4024 1154.2172"
   id="svg1"
   sodipodi:docname="archetype.svg"
   xmlns:inkscape="http://www.inkscape.org/namespaces/inkscape"
   xmlns:sodipodi="http://sodipodi.sourceforge.net/DTD/sodipodi-0.dtd"
   xmlns="http://www.w3.org/2000/svg"
   xmlns:svg="http://www.w3.org/2000/svg"><sodipodi:namedview
   id="namedview1"
   pagecolor="#505050"
   bordercolor="#eeeeee"
   borderopacity="1"
   inkscape:showpageshadow="0"
   inkscape:pageopacity="0"
   inkscape:pagecheckerboard="0"
   inkscape:deskcolor="#505050"><inkscape:page
     x="0"
     y="0"
     width="5006.4023"
     height="1154.2172"
     id="page2"
     margin="0"
     bleed="0" /></sodipodi:namedview>
 <defs
   id="defs1"><style
     type="text/css"
     id="style1">
   <![CDATA[
    .fil0 {fill:#2B2A29;fill-rule:nonzero}
   ]]>
  </style></defs>
 <g
   id="Layer_x0020_1"
   inkscape:label="Layer 1"
   inkscape:groupmode="layer"
   transform="translate(-0.1385651)">
  <metadata
   id="CorelCorpID_0Corel-Layer" />
  <path
   class="fil0"
   d="m 3,1115 21,-52 c 2,-6 5,-10 8,-13 3,-3 9,-4 17,-4 247,0 494,0 742,0 8,0 14,1 17,4 3,3 6,7 8,13 l 21,52 c 10,26 -4,25 -19,25 -265,0 -530,0 -796,0 -15,0 -29,1 -19,-25 z M 4402,551 c 0,48 -6,92 -18,134 -12,41 -30,78 -54,109 -24,31 -54,56 -91,74 -31,15 -64,22 -98,26 -17,2 -19,-10 -19,-28 v -50 c 0,-23 12,-19 29,-23 33,-8 60,-23 82,-49 17,-19 31,-45 40,-77 10,-32 14,-70 14,-116 0,-46 -5,-84 -14,-116 -9,-32 -22,-57 -40,-76 -68,-76 -198,-58 -287,-44 0,278 1,532 1,802 0,8 -1,12 -4,14 -3,2 -8,3 -14,3 h -70 c -7,0 -12,-1 -15,-3 -3,-2 -5,-7 -5,-14 V 250 c 0,-11 8,-22 18,-24 86,-21 301,-30 384,8 37,17 67,41 91,72 24,31 42,67 53,109 12,42 18,87 18,137 z m -856,438 c -16,47 -41,97 -81,127 -32,24 -77,34 -115,38 -17,2 -19,-10 -19,-28 v -50 c 0,-23 12,-19 29,-23 26,-6 48,-17 67,-33 15,-19 34,-72 42,-98 14,-45 -36,-6 -62,-91 L 3214,236 c -3,-9 1,-14 11,-14 h 84 c 9,0 15,4 18,13 53,186 118,371 172,558 h 8 c 67,-178 121,-377 186,-558 3,-8 8,-13 18,-13 h 80 c 10,0 14,5 11,14 L 3549,989 Z M 4732,209 c 48,0 89,7 124,20 35,13 63,32 85,57 22,25 39,54 50,88 11,34 16,71 16,112 1,89 -12,90 -90,104 -11,2 -13,-9 -13,-17 -1,-56 3,-104 -7,-152 -5,-24 -14,-45 -27,-63 -13,-18 -31,-32 -53,-43 -22,-10 -50,-16 -84,-16 -28,0 -52,5 -74,16 -22,11 -40,25 -54,43 -15,18 -27,39 -35,62 -38,112 -38,322 104,366 24,8 50,11 77,11 28,0 55,-4 82,-11 27,-7 49,-15 67,-24 10,-6 18,-4 24,6 l 26,53 c 6,12 3,20 -8,25 -30,18 -63,31 -97,37 -35,6 -69,9 -102,9 -47,0 -89,-7 -126,-20 -37,-13 -69,-34 -95,-61 -26,-28 -46,-63 -60,-105 -14,-43 -21,-94 -21,-153 0,-55 7,-104 22,-147 15,-43 35,-79 61,-109 26,-29 56,-52 92,-67 35,-15 74,-23 115,-23 z m -2186,0 c 48,0 89,7 124,20 35,13 63,32 85,57 22,25 39,54 50,88 11,34 16,71 16,112 1,89 -12,90 -90,104 -11,2 -13,-9 -13,-17 -1,-56 3,-104 -7,-152 -5,-24 -14,-45 -27,-63 -13,-18 -31,-32 -53,-43 -22,-10 -50,-16 -84,-16 -28,0 -52,5 -74,16 -22,11 -40,25 -54,43 -15,18 -27,39 -35,62 -38,112 -38,322 104,366 24,8 50,11 77,11 28,0 55,-4 82,-11 27,-7 49,-15 67,-24 10,-6 18,-4 24,6 l 26,53 c 6,12 3,20 -8,25 -30,18 -63,31 -97,37 -35,6 -69,9 -102,9 -47,0 -89,-7 -126,-20 -37,-13 -69,-34 -95,-61 -26,-28 -46,-63 -60,-105 -14,-43 -21,-94 -21,-153 0,-55 7,-104 22,-147 15,-43 35,-79 61,-109 26,-29 56,-52 92,-67 35,-15 74,-23 115,-23 z M 2911,20 c 0,-8 2,-14 5,-16 3,-2 8,-3 15,-3 h 69 c 7,0 12,1 15,3 3,2 5,7 5,16 0,68 1,135 1,203 h 139 c 8,0 12,2 14,5 2,4 3,8 3,14 v 51 c 0,7 -1,12 -3,14 -2,3 -7,4 -14,4 h -139 v 407 c 0,29 6,50 19,63 13,13 35,19 65,19 11,0 26,-1 46,-3 20,-2 37,-4 51,-6 8,-2 12,-1 14,1 2,2 4,5 4,9 l 11,56 c 1,5 1,9 1,13 0,3 -4,6 -11,9 -24,8 -50,12 -77,14 -27,2 -46,3 -58,3 -65,0 -111,-14 -137,-42 -26,-28 -39,-71 -39,-129 V 312 h -92 c -8,0 -12,-2 -14,-5 -2,-4 -3,-8 -3,-13 v -37 c 0,-11 5,-20 18,-22 l 91,-12 c 0,-67 0,-136 0,-203 z M 1669,130 V 116 21 c 0,-8 2,-14 5,-16 3,-2 8,-3 15,-3 h 69 c 7,0 12,1 15,3 3,2 5,7 5,16 v 110 0 109 c 27,-11 56,-18 88,-23 32,-4 60,-6 84,-6 47,0 87,7 120,21 33,14 60,33 81,59 21,26 37,56 46,93 10,36 14,78 14,124 v 358 c 0,8 -2,14 -5,16 -3,2 -8,3 -15,3 h -69 c -8,0 -13,-1 -15,-3 -3,-2 -4,-7 -4,-16 V 508 c 0,-134 -57,-201 -171,-201 -24,0 -51,2 -79,6 -28,4 -53,11 -74,20 v 532 c 0,8 -2,14 -5,16 -3,2 -8,3 -15,3 h -69 c -7,0 -12,-1 -15,-3 -3,-2 -5,-7 -5,-16 V 131 Z m -242,671 c 28,0 56,-4 83,-11 27,-8 50,-16 68,-25 8,-4 13,-5 16,-3 3,2 6,5 9,9 l 25,53 c 7,11 5,20 -6,27 -32,18 -67,30 -104,36 -38,6 -74,10 -108,10 -92,0 -162,-28 -211,-85 -49,-56 -73,-140 -73,-252 0,-54 7,-102 21,-145 14,-43 33,-80 59,-110 26,-31 57,-54 93,-70 37,-16 78,-24 124,-24 33,0 65,3 96,10 31,7 60,18 88,34 12,7 14,15 8,26 l -26,51 c -3,5 -5,9 -8,11 -3,2 -8,1 -16,-3 -20,-9 -42,-17 -65,-23 -23,-6 -49,-9 -75,-9 -33,0 -62,7 -86,21 -24,14 -44,32 -59,56 -15,23 -27,50 -34,80 -7,30 -11,62 -11,95 0,33 3,65 9,94 6,29 16,55 31,77 15,22 34,39 58,52 24,13 55,19 93,19 z M 1115,326 c -30,-11 -63,-18 -98,-18 -23,0 -48,3 -74,8 v 548 c 0,8 -2,14 -5,16 -3,2 -9,3 -15,3 h -70 c -7,0 -12,-1 -15,-3 -3,-2 -4,-7 -4,-16 V 312 c 0,-30 5,-52 15,-67 10,-14 31,-24 63,-29 17,-2 33,-3 49,-4 16,-1 32,-2 48,-2 49,0 95,7 137,20 9,3 12,4 20,8 8,4 16,10 7,23 -11,18 -23,37 -34,56 -7,14 -12,14 -25,9 z M 689,882 c -8,0 -14,-1 -18,-3 -5,-2 -9,-7 -12,-16 L 480,315 421,131 h -6 L 359,309 181,862 c -4,13 -13,20 -26,20 H 70 c -8,0 -14,-2 -16,-7 -2,-5 -2,-10 -1,-17 L 337,51 c 7,-20 14,-33 23,-40 8,-6 22,-10 41,-11 h 38 c 23,0 38,4 46,11 8,8 15,21 22,39 l 282,807 c 3,6 3,11 1,16 -2,5 -7,8 -16,8 h -83 z"
   id="path1"
   style="fill:#ffffff" />
 </g>
</svg>
