<svg id="Ebene_1" data-name="Ebene 1" xmlns="http://www.w3.org/2000/svg" xmlns:xlink="http://www.w3.org/1999/xlink" viewBox="0 0 1282.91 800"><defs><style>.cls-1,.cls-4{fill:none;}.cls-2{clip-path:url(#clip-path);}.cls-3{fill:#fff;}.cls-4{stroke:#fff;stroke-miterlimit:10;stroke-width:26.41px;}</style><clipPath id="clip-path" transform="translate(-318.34 -140.8)"><rect class="cls-1" x="319" y="141" width="1281.71" height="799.8"/></clipPath></defs><g class="cls-2"><polygon class="cls-3" points="1254.69 547.53 1196.84 674.73 1135.4 547.53 1105.98 547.53 1183.34 704.88 1140.23 800 1168.06 800 1282.91 547.53 1254.69 547.53 1254.69 547.53"/></g><polygon class="cls-3" points="1047.71 460.53 1047.71 721.09 1073.93 721.09 1073.93 460.53 1047.71 460.53 1047.71 460.53"/><polygon class="cls-3" points="959.85 515.35 990.99 515.35 990.99 482.64 959.85 482.64 959.85 515.35 959.85 515.35"/><polygon class="cls-3" points="962.24 721.13 988.51 721.13 988.51 547.37 962.24 547.37 962.24 721.13 962.24 721.13"/><path class="cls-3" d="M1200.23,688.34v19.44a85.5,85.5,0,0,0-59.07-23.14A88.65,88.65,0,0,0,1086,704.09c-20.53,17.37-32.3,43.26-32.3,71,0,30.68,13.45,57.7,36.9,74.11a87.49,87.49,0,0,0,51.72,16.36c22.86,0,44-8.8,58-23.85v20.16h25.49V688.34Zm-.74,53.52v63.56c-13,22-34.47,35-57.59,35-12.62,0-24.92-4.07-36.54-12.08-16-11.25-25.48-31.16-25.48-53.27,0-20.85,8.27-39.64,22.67-51.53a62.86,62.86,0,0,1,39-13.81c28.25,0,49.93,19,58,32.09Z" transform="translate(-318.34 -140.8)"/><path class="cls-3" d="M992.78,601.33V707.22a85.05,85.05,0,0,0-58.33-22.58,88.65,88.65,0,0,0-55.21,19.45c-20.53,17.37-32.3,43.25-32.3,71,0,30.68,13.45,57.7,36.9,74.12a87.53,87.53,0,0,0,51.72,16.35c22.86,0,44-8.8,58-23.85v20.16H1019V601.33Zm0,140.53v63.56c-13,22-34.47,35-57.59,35-12.62,0-24.92-4.07-36.54-12.08-16-11.24-25.48-31.16-25.48-53.27,0-20.85,8.27-39.64,22.67-51.52a62.81,62.81,0,0,1,39-13.82c28.25,0,49.93,19,58,32.09Z" transform="translate(-318.34 -140.8)"/><path class="cls-3" d="M1509.92,421.55c-13.86-18.74-36.42-29.48-61.9-29.48-22.42,0-42.85,8-56.11,21.77V302h-26.23V569.31h26.23V450.38c12.56-21.11,32.84-33.19,55.75-33.19,17.26,0,32.49,7.8,41.81,21.41,4.74,6.82,9.13,16.37,9.13,39.87v90.84h26.23V477c0-29.69-6-43.65-14.91-55.45Z" transform="translate(-318.34 -140.8)"/><path class="cls-3" d="M1313.31,523.57l-1.76,1.85c-14,14.69-31.2,22.46-49.82,22.46-37.26,0-66.45-28.7-66.45-65.35,0-36,28.48-65.34,63.5-65.34,18.21,0,35.21,7.15,49.15,20.68l2,1.9,16.7-19-1.72-1.72c-17.9-17.9-40.13-27-66.08-27-50.32,0-89.73,39.74-89.73,90.47,0,25.91,10.12,49.37,28.49,66.08,17.31,15.73,40.24,24.39,64.56,24.39a91.91,91.91,0,0,0,68.39-30l1.71-1.89-18.89-17.51Z" transform="translate(-318.34 -140.8)"/><path class="cls-3" d="M1158.21,392.84a126.77,126.77,0,0,0-13-.78c-22.07,0-40.21,9.8-50.58,21V395.76h-26.23V569.31h26.23V452.4c8.78-21.08,28.89-35.21,50.2-35.21a88.93,88.93,0,0,1,9.55.33l2.6.43,3.72-24.69-2.51-.42Z" transform="translate(-318.34 -140.8)"/><path class="cls-3" d="M993.52,395.76v19.45a85.45,85.45,0,0,0-59.07-23.14,88.64,88.64,0,0,0-55.21,19.44c-20.53,17.37-32.3,43.26-32.3,71,0,30.69,13.45,57.7,36.9,74.12A87.5,87.5,0,0,0,935.56,573c22.86,0,44-8.8,58-23.84v20.15H1019V395.76Zm-.74,53.52v63.57c-13,21.95-34.47,35-57.59,35-12.62,0-24.92-4.07-36.54-12.08-16-11.24-25.48-31.16-25.48-53.27,0-20.85,8.27-39.64,22.67-51.52a62.81,62.81,0,0,1,39-13.82c28.25,0,49.93,19,58,32.09Z" transform="translate(-318.34 -140.8)"/><g class="cls-2"><polygon class="cls-4" points="13.21 535.32 13.21 87.41 269.98 17.29 269.98 463.79 194.23 484.89 194.23 336.42 450.88 265.11 450.88 712.81 194.08 784.21 13.21 535.32 13.21 535.32"/></g></svg>