<svg xmlns="http://www.w3.org/2000/svg" xmlns:v="https://svgstorm.com"
viewBox = "0 0 600 600"
width="600"
height="600">
<g fill="None" fill-opacity="0.0" stroke="#000000" stroke-opacity="0.00" stroke-width="0.3"><path d="
M 0.00 600.00 
L 600.00 600.00
L 600.00 0.00
L 0.00 0.00
L 0.00 600.00
M 156.00 72.00 
C 156.00 92.00 156.00 112.00 156.00 132.00
C 138.67 132.00 121.33 132.00 104.00 132.00
C 104.00 213.00 104.00 294.00 104.00 375.00
C 121.33 375.00 138.67 375.00 156.00 375.00
C 156.86 387.82 154.86 399.02 156.00 412.00 C 157.14 424.98 157.84 438.30 143.00 436.00 C 128.16 433.70 118.63 437.10 105.00 436.00 C 91.37 434.90 81.10 436.56 68.00 436.00 C 54.90 435.44 42.99 436.42 30.00 436.00
C 30.00 314.67 30.00 193.33 30.00 72.00
C 72.00 72.00 114.00 72.00 156.00 72.00
M 570.00 72.00 
C 570.00 193.00 570.00 314.00 570.00 435.00
C 528.00 435.00 486.00 435.00 444.00 435.00
C 444.00 415.00 444.00 395.00 444.00 375.00
C 461.33 375.00 478.67 375.00 496.00 375.00
C 496.00 294.00 496.00 213.00 496.00 132.00
C 478.67 132.00 461.33 132.00 444.00 132.00
C 444.00 112.00 444.00 92.00 444.00 72.00
C 486.00 72.00 528.00 72.00 570.00 72.00
M 418.00 233.00 
C 405.18 233.25 391.76 232.67 379.00 233.00 C 366.24 233.33 352.55 232.37 340.00 233.00 C 327.45 233.63 332.26 216.49 323.25 209.75 C 314.23 203.02 303.92 200.37 293.33 203.33 C 282.74 206.29 276.64 212.37 272.23 222.23 C 267.82 232.09 266.53 243.91 266.00 255.00 C 265.47 266.09 267.22 279.30 270.93 289.07 C 274.63 298.85 280.18 306.19 290.08 309.92 C 299.97 313.65 312.71 312.58 321.25 306.25 C 329.78 299.91 332.47 289.81 335.00 280.00
C 347.96 279.70 359.94 280.40 373.00 280.00 C 386.06 279.60 398.72 280.76 412.00 280.00 C 425.28 279.24 417.20 295.96 414.68 304.68 C 412.16 313.40 406.77 322.74 401.23 330.23 C 395.69 337.72 389.65 343.35 381.75 348.75 C 373.86 354.16 365.23 358.30 355.78 361.78 C 346.32 365.26 334.93 366.87 324.33 368.33 C 313.73 369.78 298.76 370.46 288.00 369.00 C 277.24 367.54 264.65 366.55 254.98 363.02 C 245.30 359.50 237.19 356.17 228.92 351.08 C 220.66 345.99 214.28 340.51 207.75 333.25 C 201.22 325.99 196.49 319.76 192.23 310.77 C 187.97 301.79 184.66 291.28 183.02 280.98 C 181.39 270.67 181.39 256.45 182.00 246.00 C 182.61 235.55 185.64 223.44 188.98 213.98 C 192.31 204.52 196.76 197.25 202.30 189.30 C 207.84 181.36 214.29 175.98 221.70 169.70 C 229.11 163.41 237.06 159.27 246.22 155.22 C 255.39 151.17 265.59 148.87 276.00 147.00 C 286.41 145.13 301.95 144.37 313.00 145.00 C 324.05 145.63 336.06 147.32 346.02 149.98 C 355.99 152.63 365.19 156.41 373.70 161.31 C 382.20 166.20 388.61 170.59 395.25 177.75 C 401.89 184.92 406.50 192.27 410.77 201.23 C 415.04 210.19 417.49 222.75 418.00 233.00
M 83.00 484.00 
C 76.33 484.00 69.67 484.00 63.00 484.00
C 59.02 472.38 49.28 479.02 49.00 489.00 C 48.73 498.98 60.12 506.61 63.00 494.00
C 69.67 494.00 76.33 494.00 83.00 494.00
C 78.90 523.94 29.27 519.30 30.00 489.00 C 30.73 458.70 77.50 454.88 83.00 484.00
M 121.00 464.00 
C 139.56 467.01 149.73 491.16 137.25 505.25 C 124.76 519.33 99.06 518.59 91.03 499.97 C 82.99 481.35 99.21 460.46 121.00 464.00
M 195.00 471.00 
C 202.75 464.81 219.58 458.57 226.75 470.25 C 233.92 481.92 228.05 499.69 230.00 513.00
C 223.67 513.00 217.33 513.00 211.00 513.00
C 208.67 505.88 216.62 479.38 205.00 480.00 C 193.38 480.62 201.43 505.69 199.00 513.00
C 192.67 513.00 186.33 513.00 180.00 513.00
C 177.70 506.12 185.46 480.05 173.99 480.01 C 162.52 479.97 170.27 506.16 168.00 513.00
C 161.67 513.00 155.33 513.00 149.00 513.00
C 149.00 497.00 149.00 481.00 149.00 465.00
C 155.43 466.19 166.74 461.47 168.00 470.00
C 174.44 462.18 189.37 461.58 195.00 471.00
M 256.00 509.00 
C 256.00 515.33 256.00 521.67 256.00 528.00
C 249.67 528.00 243.33 528.00 237.00 528.00
C 236.52 518.63 237.64 509.39 237.00 500.00 C 236.36 490.61 238.18 480.32 237.00 471.00 C 235.82 461.68 255.17 462.24 255.00 470.00
C 270.44 455.11 289.47 469.86 290.00 488.00 C 290.53 506.14 272.54 522.79 256.00 509.00
M 350.00 513.00 
C 343.64 511.15 330.61 517.18 329.00 509.00
C 323.43 512.87 315.87 514.40 309.00 514.00 C 302.13 513.60 296.20 509.65 295.03 502.98 C 293.85 496.30 295.05 490.75 302.08 487.08 C 309.11 483.42 314.33 485.36 323.00 483.00 C 331.68 480.64 318.46 471.10 316.00 481.00
C 309.67 481.00 303.33 481.00 297.00 481.00
C 300.25 463.48 320.30 460.62 337.02 465.98 C 353.75 471.34 342.54 501.14 350.00 513.00
M 401.00 480.00 
C 395.33 480.00 389.67 480.00 384.00 480.00
C 383.27 470.16 369.85 478.03 377.68 480.32 C 385.51 482.61 390.11 483.10 396.69 486.31 C 403.28 489.51 404.96 497.86 402.02 504.02 C 399.09 510.19 392.46 511.89 386.33 513.33 C 380.20 514.77 370.21 514.37 364.31 511.69 C 358.40 509.02 353.73 503.86 354.00 497.00
C 360.00 497.00 366.00 497.00 372.00 497.00
C 373.54 509.17 389.01 499.23 379.92 496.08 C 370.84 492.92 364.97 494.86 358.75 488.25 C 352.53 481.63 355.72 472.57 362.08 468.08 C 368.44 463.59 378.56 463.61 386.07 464.93 C 393.58 466.24 402.14 470.78 401.00 480.00
M 455.00 480.00 
C 449.33 480.00 443.67 480.00 438.00 480.00
C 433.94 469.71 424.87 479.16 434.02 480.98 C 443.18 482.79 448.03 483.54 454.25 488.75 C 460.46 493.97 457.65 504.74 451.75 508.75 C 445.86 512.77 436.99 515.35 429.00 514.00 C 421.01 512.65 415.39 513.33 410.23 504.77 C 405.07 496.21 417.91 495.61 426.00 497.00
C 427.54 509.17 443.01 499.23 433.92 496.08 C 424.84 492.92 418.97 494.86 412.75 488.25 C 406.53 481.63 409.72 472.57 416.08 468.08 C 422.44 463.59 432.56 463.61 440.07 464.93 C 447.58 466.24 456.14 470.78 455.00 480.00
M 517.00 493.00 
C 505.83 495.30 493.58 493.36 482.00 494.00
C 480.75 501.59 494.13 505.62 496.00 498.00
C 502.33 498.00 508.67 498.00 515.00 498.00
C 504.49 527.07 454.23 514.03 462.93 482.93 C 471.62 451.82 519.02 462.29 517.00 493.00
M 569.00 479.00 
C 563.49 481.19 556.93 479.43 551.00 480.00
C 552.31 470.82 536.77 477.05 543.09 479.92 C 549.40 482.79 553.97 482.41 560.22 484.78 C 566.48 487.14 570.05 491.24 570.00 498.00 C 569.95 504.76 566.41 508.32 560.92 510.92 C 555.44 513.53 548.03 514.95 542.00 514.00 C 535.97 513.05 529.28 513.25 525.25 507.75 C 521.22 502.25 518.31 497.47 528.00 497.00 C 537.69 496.53 536.26 499.34 544.08 502.92 C 551.89 506.51 551.02 493.75 542.93 495.07 C 534.83 496.40 532.31 492.31 526.75 489.25 C 521.20 486.18 522.09 477.47 524.77 472.77 C 527.45 468.08 533.51 465.17 539.22 464.22 C 544.93 463.27 553.30 464.14 558.69 466.31 C 564.09 468.47 568.32 473.11 569.00 479.00 Z"/>
</g>
<g fill="None" fill-opacity="0.0" stroke="#FFFFFF" stroke-opacity="0.99" stroke-width="0.3"><path d="
M 156.00 72.00 
C 114.00 72.00 72.00 72.00 30.00 72.00
C 30.00 193.33 30.00 314.67 30.00 436.00
C 42.99 436.42 54.90 435.44 68.00 436.00 C 81.10 436.56 91.37 434.90 105.00 436.00 C 118.63 437.10 128.16 433.70 143.00 436.00 C 157.84 438.30 157.14 424.98 156.00 412.00 C 154.86 399.02 156.86 387.82 156.00 375.00
C 138.67 375.00 121.33 375.00 104.00 375.00
C 104.00 294.00 104.00 213.00 104.00 132.00
C 121.33 132.00 138.67 132.00 156.00 132.00
C 156.00 112.00 156.00 92.00 156.00 72.00 Z"/>
</g>
<g fill="None" fill-opacity="0.0" stroke="#FFFFFF" stroke-opacity="1.00" stroke-width="0.3"><path d="
M 570.00 72.00 
C 528.00 72.00 486.00 72.00 444.00 72.00
C 444.00 92.00 444.00 112.00 444.00 132.00
C 461.33 132.00 478.67 132.00 496.00 132.00
C 496.00 213.00 496.00 294.00 496.00 375.00
C 478.67 375.00 461.33 375.00 444.00 375.00
C 444.00 395.00 444.00 415.00 444.00 435.00
C 486.00 435.00 528.00 435.00 570.00 435.00
C 570.00 314.00 570.00 193.00 570.00 72.00 Z"/>
</g>
<g fill="None" fill-opacity="0.0" stroke="#FFFFFF" stroke-opacity="0.98" stroke-width="0.3"><path d="
M 418.00 233.00 
C 417.49 222.75 415.04 210.19 410.77 201.23 C 406.50 192.27 401.89 184.92 395.25 177.75 C 388.61 170.59 382.20 166.20 373.70 161.31 C 365.19 156.41 355.99 152.63 346.02 149.98 C 336.06 147.32 324.05 145.63 313.00 145.00 C 301.95 144.37 286.41 145.13 276.00 147.00 C 265.59 148.87 255.39 151.17 246.22 155.22 C 237.06 159.27 229.11 163.41 221.70 169.70 C 214.29 175.98 207.84 181.36 202.30 189.30 C 196.76 197.25 192.31 204.52 188.98 213.98 C 185.64 223.44 182.61 235.55 182.00 246.00 C 181.39 256.45 181.39 270.67 183.02 280.98 C 184.66 291.28 187.97 301.79 192.23 310.77 C 196.49 319.76 201.22 325.99 207.75 333.25 C 214.28 340.51 220.66 345.99 228.92 351.08 C 237.19 356.17 245.30 359.50 254.98 363.02 C 264.65 366.55 277.24 367.54 288.00 369.00 C 298.76 370.46 313.73 369.78 324.33 368.33 C 334.93 366.87 346.32 365.26 355.78 361.78 C 365.23 358.30 373.86 354.16 381.75 348.75 C 389.65 343.35 395.69 337.72 401.23 330.23 C 406.77 322.74 412.16 313.40 414.68 304.68 C 417.20 295.96 425.28 279.24 412.00 280.00 C 398.72 280.76 386.06 279.60 373.00 280.00 C 359.94 280.40 347.96 279.70 335.00 280.00
C 332.47 289.81 329.78 299.91 321.25 306.25 C 312.71 312.58 299.97 313.65 290.08 309.92 C 280.18 306.19 274.63 298.85 270.93 289.07 C 267.22 279.30 265.47 266.09 266.00 255.00 C 266.53 243.91 267.82 232.09 272.23 222.23 C 276.64 212.37 282.74 206.29 293.33 203.33 C 303.92 200.37 314.23 203.02 323.25 209.75 C 332.26 216.49 327.45 233.63 340.00 233.00 C 352.55 232.37 366.24 233.33 379.00 233.00 C 391.76 232.67 405.18 233.25 418.00 233.00 Z"/>
</g>
<g fill="None" fill-opacity="0.0" stroke="#FFFFFF" stroke-opacity="0.92" stroke-width="0.3"><path d="
M 83.00 484.00 
C 77.50 454.88 30.73 458.70 30.00 489.00 C 29.27 519.30 78.90 523.94 83.00 494.00
C 76.33 494.00 69.67 494.00 63.00 494.00
C 60.12 506.61 48.73 498.98 49.00 489.00 C 49.28 479.02 59.02 472.38 63.00 484.00
C 69.67 484.00 76.33 484.00 83.00 484.00 Z"/>
</g>
<g fill="None" fill-opacity="0.0" stroke="#FFFFFF" stroke-opacity="0.93" stroke-width="0.3"><path d="
M 121.00 464.00 
C 99.21 460.46 82.99 481.35 91.03 499.97 C 99.06 518.59 124.76 519.33 137.25 505.25 C 149.73 491.16 139.56 467.01 121.00 464.00
M 119.00 478.00 
C 127.97 481.50 122.62 504.44 112.97 500.02 C 103.33 495.60 107.83 473.64 119.00 478.00 Z"/>
</g>
<g fill="None" fill-opacity="0.0" stroke="#FFFFFF" stroke-opacity="0.93" stroke-width="0.3"><path d="
M 195.00 471.00 
C 189.37 461.58 174.44 462.18 168.00 470.00
C 166.74 461.47 155.43 466.19 149.00 465.00
C 149.00 481.00 149.00 497.00 149.00 513.00
C 155.33 513.00 161.67 513.00 168.00 513.00
C 170.27 506.16 162.52 479.97 173.99 480.01 C 185.46 480.05 177.70 506.12 180.00 513.00
C 186.33 513.00 192.67 513.00 199.00 513.00
C 201.43 505.69 193.38 480.62 205.00 480.00 C 216.62 479.38 208.67 505.88 211.00 513.00
C 217.33 513.00 223.67 513.00 230.00 513.00
C 228.05 499.69 233.92 481.92 226.75 470.25 C 219.58 458.57 202.75 464.81 195.00 471.00 Z"/>
</g>
<g fill="None" fill-opacity="0.0" stroke="#FFFFFF" stroke-opacity="0.93" stroke-width="0.3"><path d="
M 256.00 509.00 
C 272.54 522.79 290.53 506.14 290.00 488.00 C 289.47 469.86 270.44 455.11 255.00 470.00
C 255.17 462.24 235.82 461.68 237.00 471.00 C 238.18 480.32 236.36 490.61 237.00 500.00 C 237.64 509.39 236.52 518.63 237.00 528.00
C 243.33 528.00 249.67 528.00 256.00 528.00
C 256.00 521.67 256.00 515.33 256.00 509.00
M 267.00 479.00 
C 275.13 482.42 269.74 502.82 260.78 498.22 C 251.81 493.62 256.49 474.58 267.00 479.00 Z"/>
</g>
<g fill="None" fill-opacity="0.0" stroke="#FFFFFF" stroke-opacity="0.92" stroke-width="0.3"><path d="
M 350.00 513.00 
C 342.54 501.14 353.75 471.34 337.02 465.98 C 320.30 460.62 300.25 463.48 297.00 481.00
C 303.33 481.00 309.67 481.00 316.00 481.00
C 318.46 471.10 331.68 480.64 323.00 483.00 C 314.33 485.36 309.11 483.42 302.08 487.08 C 295.05 490.75 293.85 496.30 295.03 502.98 C 296.20 509.65 302.13 513.60 309.00 514.00 C 315.87 514.40 323.43 512.87 329.00 509.00
C 330.61 517.18 343.64 511.15 350.00 513.00
M 327.00 493.00 
C 328.87 497.88 321.38 506.97 316.31 501.69 C 311.23 496.42 322.98 493.03 327.00 493.00 Z"/>
</g>
<g fill="None" fill-opacity="0.0" stroke="#FFFFFF" stroke-opacity="0.91" stroke-width="0.3"><path d="
M 401.00 480.00 
C 402.14 470.78 393.58 466.24 386.07 464.93 C 378.56 463.61 368.44 463.59 362.08 468.08 C 355.72 472.57 352.53 481.63 358.75 488.25 C 364.97 494.86 370.84 492.92 379.92 496.08 C 389.01 499.23 373.54 509.17 372.00 497.00
C 366.00 497.00 360.00 497.00 354.00 497.00
C 353.73 503.86 358.40 509.02 364.31 511.69 C 370.21 514.37 380.20 514.77 386.33 513.33 C 392.46 511.89 399.09 510.19 402.02 504.02 C 404.96 497.86 403.28 489.51 396.69 486.31 C 390.11 483.10 385.51 482.61 377.68 480.32 C 369.85 478.03 383.27 470.16 384.00 480.00
C 389.67 480.00 395.33 480.00 401.00 480.00 Z"/>
</g>
<g fill="None" fill-opacity="0.0" stroke="#FFFFFF" stroke-opacity="0.91" stroke-width="0.3"><path d="
M 455.00 480.00 
C 456.14 470.78 447.58 466.24 440.07 464.93 C 432.56 463.61 422.44 463.59 416.08 468.08 C 409.72 472.57 406.53 481.63 412.75 488.25 C 418.97 494.86 424.84 492.92 433.92 496.08 C 443.01 499.23 427.54 509.17 426.00 497.00
C 417.91 495.61 405.07 496.21 410.23 504.77 C 415.39 513.33 421.01 512.65 429.00 514.00 C 436.99 515.35 445.86 512.77 451.75 508.75 C 457.65 504.74 460.46 493.97 454.25 488.75 C 448.03 483.54 443.18 482.79 434.02 480.98 C 424.87 479.16 433.94 469.71 438.00 480.00
C 443.67 480.00 449.33 480.00 455.00 480.00 Z"/>
</g>
<g fill="None" fill-opacity="0.0" stroke="#FFFFFF" stroke-opacity="0.91" stroke-width="0.3"><path d="
M 517.00 493.00 
C 519.02 462.29 471.62 451.82 462.93 482.93 C 454.23 514.03 504.49 527.07 515.00 498.00
C 508.67 498.00 502.33 498.00 496.00 498.00
C 494.13 505.62 480.75 501.59 482.00 494.00
C 493.58 493.36 505.83 495.30 517.00 493.00
M 497.00 484.00 
C 491.67 484.00 486.33 484.00 481.00 484.00
C 481.41 474.35 497.36 474.02 497.00 484.00 Z"/>
</g>
<g fill="None" fill-opacity="0.0" stroke="#FFFFFF" stroke-opacity="0.91" stroke-width="0.3"><path d="
M 569.00 479.00 
C 568.32 473.11 564.09 468.47 558.69 466.31 C 553.30 464.14 544.93 463.27 539.22 464.22 C 533.51 465.17 527.45 468.08 524.77 472.77 C 522.09 477.47 521.20 486.18 526.75 489.25 C 532.31 492.31 534.83 496.40 542.93 495.07 C 551.02 493.75 551.89 506.51 544.08 502.92 C 536.26 499.34 537.69 496.53 528.00 497.00 C 518.31 497.47 521.22 502.25 525.25 507.75 C 529.28 513.25 535.97 513.05 542.00 514.00 C 548.03 514.95 555.44 513.53 560.92 510.92 C 566.41 508.32 569.95 504.76 570.00 498.00 C 570.05 491.24 566.48 487.14 560.22 484.78 C 553.97 482.41 549.40 482.79 543.09 479.92 C 536.77 477.05 552.31 470.82 551.00 480.00
C 556.93 479.43 563.49 481.19 569.00 479.00 Z"/>
</g>
<g fill="None" fill-opacity="0.0" stroke="#000000" stroke-opacity="0.00" stroke-width="0.3"><path d="
M 497.00 484.00 
C 497.36 474.02 481.41 474.35 481.00 484.00
C 486.33 484.00 491.67 484.00 497.00 484.00 Z"/>
</g>
<g fill="None" fill-opacity="0.0" stroke="#000000" stroke-opacity="0.00" stroke-width="0.3"><path d="
M 119.00 478.00 
C 107.83 473.64 103.33 495.60 112.97 500.02 C 122.62 504.44 127.97 481.50 119.00 478.00 Z"/>
</g>
<g fill="None" fill-opacity="0.0" stroke="#000000" stroke-opacity="0.00" stroke-width="0.3"><path d="
M 267.00 479.00 
C 256.49 474.58 251.81 493.62 260.78 498.22 C 269.74 502.82 275.13 482.42 267.00 479.00 Z"/>
</g>
<g fill="None" fill-opacity="0.0" stroke="#000000" stroke-opacity="0.00" stroke-width="0.3"><path d="
M 327.00 493.00 
C 322.98 493.03 311.23 496.42 316.31 501.69 C 321.38 506.97 328.87 497.88 327.00 493.00 Z"/>
</g>
<g fill="#000000" fill-opacity="0.00" stroke="None">
<path d="
M 0.00 600.00 
L 600.00 600.00
L 600.00 0.00
L 0.00 0.00
L 0.00 600.00
M 156.00 72.00 
C 156.00 92.00 156.00 112.00 156.00 132.00
C 138.67 132.00 121.33 132.00 104.00 132.00
C 104.00 213.00 104.00 294.00 104.00 375.00
C 121.33 375.00 138.67 375.00 156.00 375.00
C 156.86 387.82 154.86 399.02 156.00 412.00 C 157.14 424.98 157.84 438.30 143.00 436.00 C 128.16 433.70 118.63 437.10 105.00 436.00 C 91.37 434.90 81.10 436.56 68.00 436.00 C 54.90 435.44 42.99 436.42 30.00 436.00
C 30.00 314.67 30.00 193.33 30.00 72.00
C 72.00 72.00 114.00 72.00 156.00 72.00
M 570.00 72.00 
C 570.00 193.00 570.00 314.00 570.00 435.00
C 528.00 435.00 486.00 435.00 444.00 435.00
C 444.00 415.00 444.00 395.00 444.00 375.00
C 461.33 375.00 478.67 375.00 496.00 375.00
C 496.00 294.00 496.00 213.00 496.00 132.00
C 478.67 132.00 461.33 132.00 444.00 132.00
C 444.00 112.00 444.00 92.00 444.00 72.00
C 486.00 72.00 528.00 72.00 570.00 72.00
M 418.00 233.00 
C 405.18 233.25 391.76 232.67 379.00 233.00 C 366.24 233.33 352.55 232.37 340.00 233.00 C 327.45 233.63 332.26 216.49 323.25 209.75 C 314.23 203.02 303.92 200.37 293.33 203.33 C 282.74 206.29 276.64 212.37 272.23 222.23 C 267.82 232.09 266.53 243.91 266.00 255.00 C 265.47 266.09 267.22 279.30 270.93 289.07 C 274.63 298.85 280.18 306.19 290.08 309.92 C 299.97 313.65 312.71 312.58 321.25 306.25 C 329.78 299.91 332.47 289.81 335.00 280.00
C 347.96 279.70 359.94 280.40 373.00 280.00 C 386.06 279.60 398.72 280.76 412.00 280.00 C 425.28 279.24 417.20 295.96 414.68 304.68 C 412.16 313.40 406.77 322.74 401.23 330.23 C 395.69 337.72 389.65 343.35 381.75 348.75 C 373.86 354.16 365.23 358.30 355.78 361.78 C 346.32 365.26 334.93 366.87 324.33 368.33 C 313.73 369.78 298.76 370.46 288.00 369.00 C 277.24 367.54 264.65 366.55 254.98 363.02 C 245.30 359.50 237.19 356.17 228.92 351.08 C 220.66 345.99 214.28 340.51 207.75 333.25 C 201.22 325.99 196.49 319.76 192.23 310.77 C 187.97 301.79 184.66 291.28 183.02 280.98 C 181.39 270.67 181.39 256.45 182.00 246.00 C 182.61 235.55 185.64 223.44 188.98 213.98 C 192.31 204.52 196.76 197.25 202.30 189.30 C 207.84 181.36 214.29 175.98 221.70 169.70 C 229.11 163.41 237.06 159.27 246.22 155.22 C 255.39 151.17 265.59 148.87 276.00 147.00 C 286.41 145.13 301.95 144.37 313.00 145.00 C 324.05 145.63 336.06 147.32 346.02 149.98 C 355.99 152.63 365.19 156.41 373.70 161.31 C 382.20 166.20 388.61 170.59 395.25 177.75 C 401.89 184.92 406.50 192.27 410.77 201.23 C 415.04 210.19 417.49 222.75 418.00 233.00
M 83.00 484.00 
C 76.33 484.00 69.67 484.00 63.00 484.00
C 59.02 472.38 49.28 479.02 49.00 489.00 C 48.73 498.98 60.12 506.61 63.00 494.00
C 69.67 494.00 76.33 494.00 83.00 494.00
C 78.90 523.94 29.27 519.30 30.00 489.00 C 30.73 458.70 77.50 454.88 83.00 484.00
M 121.00 464.00 
C 139.56 467.01 149.73 491.16 137.25 505.25 C 124.76 519.33 99.06 518.59 91.03 499.97 C 82.99 481.35 99.21 460.46 121.00 464.00
M 195.00 471.00 
C 202.75 464.81 219.58 458.57 226.75 470.25 C 233.92 481.92 228.05 499.69 230.00 513.00
C 223.67 513.00 217.33 513.00 211.00 513.00
C 208.67 505.88 216.62 479.38 205.00 480.00 C 193.38 480.62 201.43 505.69 199.00 513.00
C 192.67 513.00 186.33 513.00 180.00 513.00
C 177.70 506.12 185.46 480.05 173.99 480.01 C 162.52 479.97 170.27 506.16 168.00 513.00
C 161.67 513.00 155.33 513.00 149.00 513.00
C 149.00 497.00 149.00 481.00 149.00 465.00
C 155.43 466.19 166.74 461.47 168.00 470.00
C 174.44 462.18 189.37 461.58 195.00 471.00
M 256.00 509.00 
C 256.00 515.33 256.00 521.67 256.00 528.00
C 249.67 528.00 243.33 528.00 237.00 528.00
C 236.52 518.63 237.64 509.39 237.00 500.00 C 236.36 490.61 238.18 480.32 237.00 471.00 C 235.82 461.68 255.17 462.24 255.00 470.00
C 270.44 455.11 289.47 469.86 290.00 488.00 C 290.53 506.14 272.54 522.79 256.00 509.00
M 350.00 513.00 
C 343.64 511.15 330.61 517.18 329.00 509.00
C 323.43 512.87 315.87 514.40 309.00 514.00 C 302.13 513.60 296.20 509.65 295.03 502.98 C 293.85 496.30 295.05 490.75 302.08 487.08 C 309.11 483.42 314.33 485.36 323.00 483.00 C 331.68 480.64 318.46 471.10 316.00 481.00
C 309.67 481.00 303.33 481.00 297.00 481.00
C 300.25 463.48 320.30 460.62 337.02 465.98 C 353.75 471.34 342.54 501.14 350.00 513.00
M 401.00 480.00 
C 395.33 480.00 389.67 480.00 384.00 480.00
C 383.27 470.16 369.85 478.03 377.68 480.32 C 385.51 482.61 390.11 483.10 396.69 486.31 C 403.28 489.51 404.96 497.86 402.02 504.02 C 399.09 510.19 392.46 511.89 386.33 513.33 C 380.20 514.77 370.21 514.37 364.31 511.69 C 358.40 509.02 353.73 503.86 354.00 497.00
C 360.00 497.00 366.00 497.00 372.00 497.00
C 373.54 509.17 389.01 499.23 379.92 496.08 C 370.84 492.92 364.97 494.86 358.75 488.25 C 352.53 481.63 355.72 472.57 362.08 468.08 C 368.44 463.59 378.56 463.61 386.07 464.93 C 393.58 466.24 402.14 470.78 401.00 480.00
M 455.00 480.00 
C 449.33 480.00 443.67 480.00 438.00 480.00
C 433.94 469.71 424.87 479.16 434.02 480.98 C 443.18 482.79 448.03 483.54 454.25 488.75 C 460.46 493.97 457.65 504.74 451.75 508.75 C 445.86 512.77 436.99 515.35 429.00 514.00 C 421.01 512.65 415.39 513.33 410.23 504.77 C 405.07 496.21 417.91 495.61 426.00 497.00
C 427.54 509.17 443.01 499.23 433.92 496.08 C 424.84 492.92 418.97 494.86 412.75 488.25 C 406.53 481.63 409.72 472.57 416.08 468.08 C 422.44 463.59 432.56 463.61 440.07 464.93 C 447.58 466.24 456.14 470.78 455.00 480.00
M 517.00 493.00 
C 505.83 495.30 493.58 493.36 482.00 494.00
C 480.75 501.59 494.13 505.62 496.00 498.00
C 502.33 498.00 508.67 498.00 515.00 498.00
C 504.49 527.07 454.23 514.03 462.93 482.93 C 471.62 451.82 519.02 462.29 517.00 493.00
M 569.00 479.00 
C 563.49 481.19 556.93 479.43 551.00 480.00
C 552.31 470.82 536.77 477.05 543.09 479.92 C 549.40 482.79 553.97 482.41 560.22 484.78 C 566.48 487.14 570.05 491.24 570.00 498.00 C 569.95 504.76 566.41 508.32 560.92 510.92 C 555.44 513.53 548.03 514.95 542.00 514.00 C 535.97 513.05 529.28 513.25 525.25 507.75 C 521.22 502.25 518.31 497.47 528.00 497.00 C 537.69 496.53 536.26 499.34 544.08 502.92 C 551.89 506.51 551.02 493.75 542.93 495.07 C 534.83 496.40 532.31 492.31 526.75 489.25 C 521.20 486.18 522.09 477.47 524.77 472.77 C 527.45 468.08 533.51 465.17 539.22 464.22 C 544.93 463.27 553.30 464.14 558.69 466.31 C 564.09 468.47 568.32 473.11 569.00 479.00 Z"/>
</g>
<g fill="#FFFFFF" fill-opacity="0.99" stroke="None">
<path d="
M 156.00 72.00 
C 114.00 72.00 72.00 72.00 30.00 72.00
C 30.00 193.33 30.00 314.67 30.00 436.00
C 42.99 436.42 54.90 435.44 68.00 436.00 C 81.10 436.56 91.37 434.90 105.00 436.00 C 118.63 437.10 128.16 433.70 143.00 436.00 C 157.84 438.30 157.14 424.98 156.00 412.00 C 154.86 399.02 156.86 387.82 156.00 375.00
C 138.67 375.00 121.33 375.00 104.00 375.00
C 104.00 294.00 104.00 213.00 104.00 132.00
C 121.33 132.00 138.67 132.00 156.00 132.00
C 156.00 112.00 156.00 92.00 156.00 72.00 Z"/>
</g>
<g fill="#FFFFFF" fill-opacity="1.00" stroke="None">
<path d="
M 570.00 72.00 
C 528.00 72.00 486.00 72.00 444.00 72.00
C 444.00 92.00 444.00 112.00 444.00 132.00
C 461.33 132.00 478.67 132.00 496.00 132.00
C 496.00 213.00 496.00 294.00 496.00 375.00
C 478.67 375.00 461.33 375.00 444.00 375.00
C 444.00 395.00 444.00 415.00 444.00 435.00
C 486.00 435.00 528.00 435.00 570.00 435.00
C 570.00 314.00 570.00 193.00 570.00 72.00 Z"/>
</g>
<g fill="#FFFFFF" fill-opacity="0.98" stroke="None">
<path d="
M 418.00 233.00 
C 417.49 222.75 415.04 210.19 410.77 201.23 C 406.50 192.27 401.89 184.92 395.25 177.75 C 388.61 170.59 382.20 166.20 373.70 161.31 C 365.19 156.41 355.99 152.63 346.02 149.98 C 336.06 147.32 324.05 145.63 313.00 145.00 C 301.95 144.37 286.41 145.13 276.00 147.00 C 265.59 148.87 255.39 151.17 246.22 155.22 C 237.06 159.27 229.11 163.41 221.70 169.70 C 214.29 175.98 207.84 181.36 202.30 189.30 C 196.76 197.25 192.31 204.52 188.98 213.98 C 185.64 223.44 182.61 235.55 182.00 246.00 C 181.39 256.45 181.39 270.67 183.02 280.98 C 184.66 291.28 187.97 301.79 192.23 310.77 C 196.49 319.76 201.22 325.99 207.75 333.25 C 214.28 340.51 220.66 345.99 228.92 351.08 C 237.19 356.17 245.30 359.50 254.98 363.02 C 264.65 366.55 277.24 367.54 288.00 369.00 C 298.76 370.46 313.73 369.78 324.33 368.33 C 334.93 366.87 346.32 365.26 355.78 361.78 C 365.23 358.30 373.86 354.16 381.75 348.75 C 389.65 343.35 395.69 337.72 401.23 330.23 C 406.77 322.74 412.16 313.40 414.68 304.68 C 417.20 295.96 425.28 279.24 412.00 280.00 C 398.72 280.76 386.06 279.60 373.00 280.00 C 359.94 280.40 347.96 279.70 335.00 280.00
C 332.47 289.81 329.78 299.91 321.25 306.25 C 312.71 312.58 299.97 313.65 290.08 309.92 C 280.18 306.19 274.63 298.85 270.93 289.07 C 267.22 279.30 265.47 266.09 266.00 255.00 C 266.53 243.91 267.82 232.09 272.23 222.23 C 276.64 212.37 282.74 206.29 293.33 203.33 C 303.92 200.37 314.23 203.02 323.25 209.75 C 332.26 216.49 327.45 233.63 340.00 233.00 C 352.55 232.37 366.24 233.33 379.00 233.00 C 391.76 232.67 405.18 233.25 418.00 233.00 Z"/>
</g>
<g fill="#FFFFFF" fill-opacity="0.92" stroke="None">
<path d="
M 83.00 484.00 
C 77.50 454.88 30.73 458.70 30.00 489.00 C 29.27 519.30 78.90 523.94 83.00 494.00
C 76.33 494.00 69.67 494.00 63.00 494.00
C 60.12 506.61 48.73 498.98 49.00 489.00 C 49.28 479.02 59.02 472.38 63.00 484.00
C 69.67 484.00 76.33 484.00 83.00 484.00 Z"/>
</g>
<g fill="#FFFFFF" fill-opacity="0.93" stroke="None">
<path d="
M 121.00 464.00 
C 99.21 460.46 82.99 481.35 91.03 499.97 C 99.06 518.59 124.76 519.33 137.25 505.25 C 149.73 491.16 139.56 467.01 121.00 464.00
M 119.00 478.00 
C 127.97 481.50 122.62 504.44 112.97 500.02 C 103.33 495.60 107.83 473.64 119.00 478.00 Z"/>
</g>
<g fill="#FFFFFF" fill-opacity="0.93" stroke="None">
<path d="
M 195.00 471.00 
C 189.37 461.58 174.44 462.18 168.00 470.00
C 166.74 461.47 155.43 466.19 149.00 465.00
C 149.00 481.00 149.00 497.00 149.00 513.00
C 155.33 513.00 161.67 513.00 168.00 513.00
C 170.27 506.16 162.52 479.97 173.99 480.01 C 185.46 480.05 177.70 506.12 180.00 513.00
C 186.33 513.00 192.67 513.00 199.00 513.00
C 201.43 505.69 193.38 480.62 205.00 480.00 C 216.62 479.38 208.67 505.88 211.00 513.00
C 217.33 513.00 223.67 513.00 230.00 513.00
C 228.05 499.69 233.92 481.92 226.75 470.25 C 219.58 458.57 202.75 464.81 195.00 471.00 Z"/>
</g>
<g fill="#FFFFFF" fill-opacity="0.93" stroke="None">
<path d="
M 256.00 509.00 
C 272.54 522.79 290.53 506.14 290.00 488.00 C 289.47 469.86 270.44 455.11 255.00 470.00
C 255.17 462.24 235.82 461.68 237.00 471.00 C 238.18 480.32 236.36 490.61 237.00 500.00 C 237.64 509.39 236.52 518.63 237.00 528.00
C 243.33 528.00 249.67 528.00 256.00 528.00
C 256.00 521.67 256.00 515.33 256.00 509.00
M 267.00 479.00 
C 275.13 482.42 269.74 502.82 260.78 498.22 C 251.81 493.62 256.49 474.58 267.00 479.00 Z"/>
</g>
<g fill="#FFFFFF" fill-opacity="0.92" stroke="None">
<path d="
M 350.00 513.00 
C 342.54 501.14 353.75 471.34 337.02 465.98 C 320.30 460.62 300.25 463.48 297.00 481.00
C 303.33 481.00 309.67 481.00 316.00 481.00
C 318.46 471.10 331.68 480.64 323.00 483.00 C 314.33 485.36 309.11 483.42 302.08 487.08 C 295.05 490.75 293.85 496.30 295.03 502.98 C 296.20 509.65 302.13 513.60 309.00 514.00 C 315.87 514.40 323.43 512.87 329.00 509.00
C 330.61 517.18 343.64 511.15 350.00 513.00
M 327.00 493.00 
C 328.87 497.88 321.38 506.97 316.31 501.69 C 311.23 496.42 322.98 493.03 327.00 493.00 Z"/>
</g>
<g fill="#FFFFFF" fill-opacity="0.91" stroke="None">
<path d="
M 401.00 480.00 
C 402.14 470.78 393.58 466.24 386.07 464.93 C 378.56 463.61 368.44 463.59 362.08 468.08 C 355.72 472.57 352.53 481.63 358.75 488.25 C 364.97 494.86 370.84 492.92 379.92 496.08 C 389.01 499.23 373.54 509.17 372.00 497.00
C 366.00 497.00 360.00 497.00 354.00 497.00
C 353.73 503.86 358.40 509.02 364.31 511.69 C 370.21 514.37 380.20 514.77 386.33 513.33 C 392.46 511.89 399.09 510.19 402.02 504.02 C 404.96 497.86 403.28 489.51 396.69 486.31 C 390.11 483.10 385.51 482.61 377.68 480.32 C 369.85 478.03 383.27 470.16 384.00 480.00
C 389.67 480.00 395.33 480.00 401.00 480.00 Z"/>
</g>
<g fill="#FFFFFF" fill-opacity="0.91" stroke="None">
<path d="
M 455.00 480.00 
C 456.14 470.78 447.58 466.24 440.07 464.93 C 432.56 463.61 422.44 463.59 416.08 468.08 C 409.72 472.57 406.53 481.63 412.75 488.25 C 418.97 494.86 424.84 492.92 433.92 496.08 C 443.01 499.23 427.54 509.17 426.00 497.00
C 417.91 495.61 405.07 496.21 410.23 504.77 C 415.39 513.33 421.01 512.65 429.00 514.00 C 436.99 515.35 445.86 512.77 451.75 508.75 C 457.65 504.74 460.46 493.97 454.25 488.75 C 448.03 483.54 443.18 482.79 434.02 480.98 C 424.87 479.16 433.94 469.71 438.00 480.00
C 443.67 480.00 449.33 480.00 455.00 480.00 Z"/>
</g>
<g fill="#FFFFFF" fill-opacity="0.91" stroke="None">
<path d="
M 517.00 493.00 
C 519.02 462.29 471.62 451.82 462.93 482.93 C 454.23 514.03 504.49 527.07 515.00 498.00
C 508.67 498.00 502.33 498.00 496.00 498.00
C 494.13 505.62 480.75 501.59 482.00 494.00
C 493.58 493.36 505.83 495.30 517.00 493.00
M 497.00 484.00 
C 491.67 484.00 486.33 484.00 481.00 484.00
C 481.41 474.35 497.36 474.02 497.00 484.00 Z"/>
</g>
<g fill="#FFFFFF" fill-opacity="0.91" stroke="None">
<path d="
M 569.00 479.00 
C 568.32 473.11 564.09 468.47 558.69 466.31 C 553.30 464.14 544.93 463.27 539.22 464.22 C 533.51 465.17 527.45 468.08 524.77 472.77 C 522.09 477.47 521.20 486.18 526.75 489.25 C 532.31 492.31 534.83 496.40 542.93 495.07 C 551.02 493.75 551.89 506.51 544.08 502.92 C 536.26 499.34 537.69 496.53 528.00 497.00 C 518.31 497.47 521.22 502.25 525.25 507.75 C 529.28 513.25 535.97 513.05 542.00 514.00 C 548.03 514.95 555.44 513.53 560.92 510.92 C 566.41 508.32 569.95 504.76 570.00 498.00 C 570.05 491.24 566.48 487.14 560.22 484.78 C 553.97 482.41 549.40 482.79 543.09 479.92 C 536.77 477.05 552.31 470.82 551.00 480.00
C 556.93 479.43 563.49 481.19 569.00 479.00 Z"/>
</g>
<g fill="#000000" fill-opacity="0.00" stroke="None">
<path d="
M 497.00 484.00 
C 497.36 474.02 481.41 474.35 481.00 484.00
C 486.33 484.00 491.67 484.00 497.00 484.00 Z"/>
</g>
<g fill="#000000" fill-opacity="0.00" stroke="None">
<path d="
M 119.00 478.00 
C 107.83 473.64 103.33 495.60 112.97 500.02 C 122.62 504.44 127.97 481.50 119.00 478.00 Z"/>
</g>
<g fill="#000000" fill-opacity="0.00" stroke="None">
<path d="
M 267.00 479.00 
C 256.49 474.58 251.81 493.62 260.78 498.22 C 269.74 502.82 275.13 482.42 267.00 479.00 Z"/>
</g>
<g fill="#000000" fill-opacity="0.00" stroke="None">
<path d="
M 327.00 493.00 
C 322.98 493.03 311.23 496.42 316.31 501.69 C 321.38 506.97 328.87 497.88 327.00 493.00 Z"/>
</g>
</svg>