<svg xmlns="http://www.w3.org/2000/svg" xmlns:v="https://svgstorm.com"
viewBox = "0 0 695 284"
width="695"
height="284">
<g fill="None" fill-opacity="0.0" stroke="#000000" stroke-opacity="0.00" stroke-width="0.3"><path d="
M 0.00 20.00 
C 8.63 20.50 17.77 18.90 26.00 21.00
C 25.73 34.64 26.19 49.70 26.00 64.00
C 28.07 70.53 36.59 68.81 37.78 62.78 C 38.97 56.74 38.21 49.16 39.00 43.00 C 39.79 36.84 36.39 27.39 39.00 22.00
C 42.09 15.61 51.38 22.64 59.00 20.00 C 66.62 17.36 67.97 27.06 67.00 34.00 C 66.03 40.94 66.93 48.88 67.00 56.00 C 67.07 63.12 66.44 69.20 64.00 75.00
C 62.95 77.49 61.95 79.46 59.00 82.00
C 54.17 86.16 48.54 88.55 42.00 89.00
C 26.57 90.05 9.02 90.07 0.00 76.00
L 0.00 284.00
L 286.00 284.00
C 286.00 283.50 286.00 283.00 286.00 283.00
C 240.19 283.97 217.28 224.38 242.30 190.30 C 267.33 156.23 323.89 154.91 348.75 190.25 C 373.62 225.58 350.63 283.00 304.00 283.00
C 304.04 283.00 304.00 284.00 304.00 284.00
L 639.00 284.00
C 614.60 284.33 582.58 272.44 583.00 243.00
C 594.33 243.00 605.67 243.00 617.00 243.00
C 620.55 258.79 631.26 258.69 647.00 259.00 C 662.74 259.31 663.78 241.22 648.93 239.07 C 634.08 236.92 624.86 233.53 611.98 230.02 C 599.10 226.52 591.48 218.06 589.00 206.00 C 586.53 193.93 592.07 182.41 602.25 175.25 C 612.42 168.08 625.36 165.29 638.00 165.00 C 650.64 164.71 663.01 166.71 673.75 173.25 C 684.48 179.80 689.53 191.30 691.00 203.00
C 679.24 203.00 661.37 206.87 656.25 196.75 C 651.12 186.64 633.54 183.27 624.31 191.31 C 615.07 199.34 633.18 209.82 643.22 209.78 C 653.26 209.74 666.43 217.57 676.69 220.31 C 686.96 223.04 694.78 235.71 695.00 246.00
L 695.00 0.00
L 411.00 0.00
C 418.39 15.49 391.01 17.86 397.00 0.00
L 115.00 0.00
C 114.90 1.32 115.13 2.68 115.00 4.00
C 115.34 5.26 116.49 6.56 117.78 8.22 C 119.06 9.89 117.49 12.46 118.00 14.00
C 121.70 17.33 122.28 21.85 124.00 27.00
C 124.87 29.60 125.48 31.22 126.00 34.00
C 132.13 51.02 140.88 69.07 145.00 87.00
C 135.67 87.00 126.33 87.00 117.00 87.00
C 115.23 81.60 113.66 76.42 112.00 71.00
C 111.00 67.66 109.73 64.55 109.00 61.00
C 107.08 60.49 106.77 62.84 106.00 64.00
C 102.55 70.17 102.35 85.37 95.00 87.00
C 89.37 88.25 77.61 88.32 72.00 87.00
C 67.42 85.92 73.42 78.04 74.93 72.93 C 76.44 67.81 79.21 61.52 81.33 56.33 C 83.45 51.13 86.14 45.29 87.99 39.99 C 89.84 34.69 92.36 28.95 96.00 25.00
C 92.43 16.93 89.07 8.71 87.00 0.00
L 39.00 0.00
C 39.55 2.97 40.11 5.08 39.00 8.00
C 34.86 18.91 19.12 10.47 25.00 0.00
L 0.00 0.00
L 0.00 20.00
M 268.00 41.00 
C 266.45 44.03 263.57 47.86 260.75 49.75 C 257.94 51.65 265.33 57.04 266.00 59.00
C 266.89 59.74 267.99 60.50 269.00 61.00
C 269.11 60.00 268.53 58.27 270.00 58.00
C 270.20 57.06 269.90 55.96 270.00 55.00
C 271.04 45.11 286.65 56.45 280.67 62.67 C 274.69 68.89 278.09 74.04 282.00 79.00
C 284.97 80.80 289.14 83.19 288.00 88.00
C 283.98 87.81 280.23 86.40 276.00 87.00
C 272.85 86.21 273.78 84.49 272.00 83.00
C 266.05 82.45 262.93 86.23 256.00 88.00
C 250.55 89.39 245.12 89.45 240.00 87.00
C 230.58 82.49 226.67 72.37 230.00 63.00
C 232.34 56.41 235.79 50.94 243.00 48.00
C 241.86 45.46 238.17 44.31 239.00 41.00
C 234.28 30.90 239.75 16.68 254.00 17.00 C 268.26 17.32 273.39 30.46 268.00 41.00
M 220.00 40.00 
C 220.11 40.47 220.11 41.53 220.00 42.00
C 223.76 50.84 220.55 64.92 221.00 75.00 C 221.45 85.08 222.09 99.11 221.00 109.00 C 219.91 118.89 197.73 109.90 191.00 113.00
C 191.62 102.69 190.17 93.41 191.00 83.00 C 191.83 72.59 189.45 62.65 191.00 52.00 C 192.55 41.35 181.57 37.00 177.00 47.00
C 179.19 49.40 176.00 56.50 177.00 60.00 C 178.00 63.50 176.51 68.95 177.00 73.00 C 177.49 77.05 176.63 82.80 177.00 87.00
C 167.33 87.00 157.67 87.00 148.00 87.00
C 148.00 64.67 148.00 42.33 148.00 20.00
C 155.60 22.23 176.08 14.55 174.00 26.00
C 188.13 11.96 219.87 17.13 220.00 40.00
M 469.00 23.00 
C 476.37 26.37 481.94 30.93 484.00 39.00
C 484.99 41.38 485.30 42.99 486.00 46.00
C 487.60 52.87 487.67 57.24 486.00 64.00
C 483.21 75.27 477.69 85.41 465.00 88.00
C 462.14 88.58 461.05 88.18 458.00 88.00
C 449.38 88.36 442.93 87.90 437.00 81.00
C 437.83 90.48 434.29 102.70 436.00 113.00
C 432.74 112.83 422.59 114.52 426.00 109.00
C 425.22 89.71 426.34 70.31 426.00 51.00
C 425.60 28.08 447.88 13.35 469.00 23.00
M 556.00 20.00 
C 557.17 20.14 557.31 20.81 558.00 21.00
C 558.77 20.83 560.21 20.90 561.00 21.00
C 572.85 22.57 577.56 36.94 583.00 44.00
C 582.56 45.29 581.42 46.21 580.00 46.00
C 578.78 51.07 580.10 57.76 580.00 63.00
C 579.61 82.58 560.36 91.85 543.00 88.00
C 538.44 86.99 536.56 85.59 533.00 83.00
C 530.61 81.26 529.82 80.18 528.00 78.00
C 526.20 75.85 525.38 75.02 524.00 72.00
C 518.85 60.74 518.43 48.26 524.00 37.00
C 529.38 26.12 542.78 14.61 556.00 20.00
M 304.00 46.00 
C 305.13 45.41 305.26 44.85 306.00 44.00
C 312.63 36.35 323.80 29.43 330.00 21.00
C 340.35 21.51 351.76 20.33 362.00 21.00 C 372.24 21.67 385.28 18.85 393.00 23.00
C 393.90 24.91 392.33 27.98 393.00 30.00
C 386.00 30.00 379.00 30.00 372.00 30.00
C 372.00 45.33 372.00 60.67 372.00 76.00
C 375.29 82.58 384.60 71.72 381.22 83.22 C 377.84 94.73 362.44 88.54 362.00 77.00
C 361.40 61.36 362.45 45.65 362.00 30.00
C 355.33 30.00 348.67 30.00 342.00 30.00
C 339.70 29.44 340.61 28.41 339.00 27.00
C 332.83 33.47 326.18 40.11 319.00 45.00
C 326.15 60.23 341.75 72.42 348.00 88.00
C 344.27 88.01 340.92 86.34 337.00 87.00
C 331.90 85.62 327.54 76.75 324.08 71.92 C 320.63 67.08 314.05 60.68 312.00 55.00
C 311.84 54.56 312.00 54.00 312.00 54.00
C 298.73 53.64 305.69 78.84 304.00 87.00
C 303.00 87.00 302.00 87.00 301.00 87.00
C 298.35 87.24 295.65 86.82 293.00 87.00
C 294.13 76.61 292.66 66.75 294.00 57.00
C 294.14 51.98 291.98 48.14 293.01 42.99 C 294.04 37.84 290.69 27.78 293.00 23.00
C 294.77 19.35 300.06 21.61 304.00 21.00
C 304.15 29.12 303.80 38.98 304.00 46.00
M 412.00 88.00 
C 409.34 88.10 408.37 88.63 406.00 88.00
C 398.57 86.02 398.18 78.19 399.00 71.00 C 399.82 63.81 397.54 54.08 399.00 47.00 C 400.46 39.92 395.93 29.35 399.00 23.00
C 403.35 14.00 412.78 25.67 410.00 33.00 C 407.22 40.33 411.03 51.67 410.00 59.00 C 408.97 66.33 407.27 79.77 417.00 78.00
C 419.35 81.91 418.15 92.45 412.00 88.00
M 515.00 78.00 
C 522.31 91.04 499.17 92.72 497.10 83.90 C 495.03 75.08 495.57 58.66 496.00 50.00 C 496.43 41.34 491.61 20.57 502.00 21.00 C 512.39 21.43 504.57 43.33 507.00 51.00 C 509.43 58.67 500.56 80.43 515.00 78.00
M 191.00 273.00 
C 190.60 252.77 191.80 231.84 191.00 211.00
C 190.10 187.45 155.73 185.30 149.22 207.22 C 142.71 229.15 151.59 257.87 148.00 280.00
C 137.85 281.93 126.34 277.94 116.00 281.00
C 111.23 275.53 116.18 268.40 115.00 262.00
C 114.16 252.47 114.12 242.12 115.00 233.00
C 114.71 229.86 114.71 226.14 115.00 223.00
C 114.57 218.60 114.58 213.34 115.00 209.00
C 114.71 205.86 114.71 202.14 115.00 199.00
C 114.57 194.60 114.58 189.34 115.00 185.00
C 114.73 182.17 114.73 178.83 115.00 176.00
C 114.54 171.28 114.55 165.65 115.00 161.00
C 114.73 158.17 114.73 154.83 115.00 152.00
C 114.56 147.48 114.92 141.35 115.00 137.00
C 114.61 135.05 115.05 133.23 115.00 132.00
C 114.76 126.09 114.46 119.57 115.00 114.00
C 114.66 110.37 115.26 106.64 115.00 103.00
C 126.00 103.00 137.00 103.00 148.00 103.00
C 148.00 128.33 148.00 153.67 148.00 179.00
C 156.20 175.48 162.08 169.23 171.22 167.22 C 180.36 165.22 193.71 165.22 202.22 168.78 C 210.74 172.33 217.44 175.34 221.77 184.23 C 226.10 193.12 225.12 206.86 225.00 217.00 C 224.88 227.14 225.40 242.55 225.00 252.00 C 224.60 261.45 228.91 281.11 218.00 280.00 C 207.09 278.89 190.48 286.07 191.00 273.00
M 576.00 123.00 
C 575.92 175.67 576.16 227.85 576.00 280.00
C 565.00 280.00 554.00 280.00 543.00 280.00
C 542.89 227.42 543.02 175.85 543.00 123.00
C 554.05 121.14 564.75 123.07 576.00 123.00
M 401.00 147.00 
C 403.24 153.84 401.40 161.74 402.00 169.00
C 414.92 167.91 421.44 167.32 421.00 181.00 C 420.56 194.68 412.17 190.26 402.00 190.00
C 402.64 200.30 402.03 206.01 402.00 216.00 C 401.97 225.99 403.49 234.27 402.00 245.00 C 400.51 255.73 409.04 261.12 420.00 258.00
C 420.00 265.67 420.00 273.33 420.00 281.00
C 402.31 281.59 372.66 285.39 370.00 262.00 C 367.35 238.60 369.90 214.76 369.00 191.00
C 364.71 189.58 353.91 194.18 353.03 187.97 C 352.15 181.76 353.63 175.24 353.00 169.00
C 358.28 168.47 364.15 170.14 369.00 168.00
C 367.86 161.73 370.19 154.53 368.00 148.00
C 378.42 146.11 389.96 148.39 401.00 147.00
M 454.00 233.00 
C 450.75 257.68 488.67 267.55 499.00 246.00
C 510.00 246.00 521.00 246.00 532.00 246.00
C 530.14 255.16 526.18 264.04 518.25 270.25 C 510.32 276.46 502.10 279.79 491.99 281.99 C 481.88 284.20 466.43 283.27 456.78 280.22 C 447.13 277.18 439.85 273.82 432.75 266.25 C 425.65 258.68 422.93 250.69 420.22 240.78 C 417.52 230.87 418.39 216.53 420.78 206.78 C 423.17 197.03 426.91 188.92 433.75 181.75 C 440.60 174.59 447.60 170.48 457.08 167.08 C 466.55 163.67 482.88 164.86 492.22 166.78 C 501.57 168.70 511.78 172.06 518.25 178.75 C 524.72 185.45 530.20 194.66 531.92 203.08 C 533.65 211.49 540.77 232.11 529.00 233.00 C 517.22 233.89 503.12 232.38 491.00 233.00 C 478.88 233.62 466.58 232.71 454.00 233.00 Z"/>
</g>
<g fill="None" fill-opacity="0.0" stroke="#FFFFFF" stroke-opacity="0.68" stroke-width="0.3"><path d="
M 39.00 8.00 
C 38.17 9.24 36.19 10.14 35.00 9.00
C 36.17 6.24 36.80 2.61 36.00 0.00
L 25.00 0.00
C 19.12 10.47 34.86 18.91 39.00 8.00 Z"/>
</g>
<g fill="None" fill-opacity="0.0" stroke="#FFFFFF" stroke-opacity="0.41" stroke-width="0.3"><path d="
M 39.00 8.00 
C 40.11 5.08 39.55 2.97 39.00 0.00
L 36.00 0.00
C 36.80 2.61 36.17 6.24 35.00 9.00
C 36.19 10.14 38.17 9.24 39.00 8.00 Z"/>
</g>
<g fill="None" fill-opacity="0.0" stroke="#FFFFFF" stroke-opacity="0.87" stroke-width="0.3"><path d="
M 72.00 87.00 
C 70.80 86.37 71.14 84.03 71.00 83.00
C 77.36 88.54 90.01 81.37 95.00 87.00
C 102.35 85.37 102.55 70.17 106.00 64.00
C 106.04 65.36 102.94 61.99 104.80 59.75 C 106.66 57.52 106.12 57.03 107.00 54.00
C 113.94 57.01 110.63 65.82 115.00 71.00
C 113.94 72.12 113.16 71.48 112.00 71.00
C 113.66 76.42 115.23 81.60 117.00 87.00
C 126.33 87.00 135.67 87.00 145.00 87.00
C 140.88 69.07 132.13 51.02 126.00 34.00
C 126.45 36.43 126.26 37.96 128.00 40.00
C 122.41 38.35 123.07 30.55 121.00 26.00
C 121.94 26.57 122.82 27.15 124.00 27.00
C 122.28 21.85 121.70 17.33 118.00 14.00
C 114.77 11.10 114.52 9.00 115.00 4.00
C 115.13 2.68 114.90 1.32 115.00 0.00
L 87.00 0.00
C 89.07 8.71 92.43 16.93 96.00 25.00
C 92.36 28.95 89.84 34.69 87.99 39.99 C 86.14 45.29 83.45 51.13 81.33 56.33 C 79.21 61.52 76.44 67.81 74.93 72.93 C 73.42 78.04 67.42 85.92 72.00 87.00 Z"/>
</g>
<g fill="None" fill-opacity="0.0" stroke="#FFFFFF" stroke-opacity="0.65" stroke-width="0.3"><path d="
M 411.00 0.00 
L 397.00 0.00
C 391.01 17.86 418.39 15.49 411.00 0.00 Z"/>
</g>
<g fill="None" fill-opacity="0.0" stroke="#FFFFFF" stroke-opacity="0.44" stroke-width="0.3"><path d="
M 118.00 14.00 
C 117.49 12.46 119.06 9.89 117.78 8.22 C 116.49 6.56 115.34 5.26 115.00 4.00
C 114.52 9.00 114.77 11.10 118.00 14.00 Z"/>
</g>
<g fill="None" fill-opacity="0.0" stroke="#FFFFFF" stroke-opacity="0.74" stroke-width="0.3"><path d="
M 239.00 41.00 
C 239.91 42.04 246.38 45.56 245.00 50.00
C 241.02 50.00 238.61 54.94 235.75 56.75 C 232.90 58.57 231.19 66.28 230.00 63.00
C 226.67 72.37 230.58 82.49 240.00 87.00
C 238.72 86.77 244.62 84.18 248.01 85.99 C 251.40 87.81 257.84 82.94 261.00 85.00
C 259.99 86.65 256.80 85.93 256.00 88.00
C 262.93 86.23 266.05 82.45 272.00 83.00
C 272.04 83.00 276.03 81.07 278.00 84.00
C 278.82 86.01 276.18 85.47 276.00 87.00
C 280.23 86.40 283.98 87.81 288.00 88.00
C 289.14 83.19 284.97 80.80 282.00 79.00
C 278.53 76.90 272.37 75.33 274.00 69.00
C 279.92 68.52 274.64 57.90 279.00 57.00
C 279.31 53.77 275.01 57.09 273.00 56.00
C 274.39 58.17 269.60 61.55 270.00 58.00
C 268.53 58.27 269.11 60.00 269.00 61.00
C 267.99 60.50 266.89 59.74 266.00 59.00
C 266.48 60.41 267.82 62.24 265.00 62.00
C 262.75 58.57 262.15 51.75 257.00 53.00
C 256.69 47.76 264.17 41.04 268.00 41.00
C 273.39 30.46 268.26 17.32 254.00 17.00 C 239.75 16.68 234.28 30.90 239.00 41.00
M 252.00 43.00 
C 248.70 39.29 247.94 34.62 247.00 30.00
C 260.40 19.91 265.02 42.42 252.00 43.00
M 263.00 73.00 
C 254.70 82.86 234.68 75.87 241.93 61.93 C 249.18 47.98 257.99 67.28 263.00 73.00 Z"/>
</g>
<g fill="None" fill-opacity="0.0" stroke="#FFFFFF" stroke-opacity="0.92" stroke-width="0.3"><path d="
M 177.00 47.00 
C 176.35 47.86 176.16 47.68 176.00 49.00
C 174.69 59.66 176.61 69.09 176.00 80.00 C 175.39 90.91 159.25 84.20 151.00 86.00
C 157.76 83.70 166.49 85.64 174.00 85.00
C 174.00 73.00 174.00 61.00 174.00 49.00
C 174.77 38.97 184.90 35.27 193.00 41.00
C 193.67 43.05 189.96 47.01 194.00 47.00
C 196.73 53.70 194.34 66.95 195.00 77.00 C 195.66 87.05 194.50 99.72 195.00 110.00
C 202.33 110.00 209.67 110.00 217.00 110.00
C 216.96 86.47 217.05 61.81 217.00 39.00
C 218.28 38.47 218.86 39.97 220.00 40.00
C 219.87 17.13 188.13 11.96 174.00 26.00
C 176.08 14.55 155.60 22.23 148.00 20.00
C 148.00 42.33 148.00 64.67 148.00 87.00
C 157.67 87.00 167.33 87.00 177.00 87.00
C 176.63 82.80 177.49 77.05 177.00 73.00 C 176.51 68.95 178.00 63.50 177.00 60.00 C 176.00 56.50 179.19 49.40 177.00 47.00
M 173.00 23.00 
C 165.95 22.03 155.91 24.55 149.00 22.00
C 156.05 20.99 167.96 19.04 173.00 23.00 Z"/>
</g>
<g fill="None" fill-opacity="0.0" stroke="#FFFFFF" stroke-opacity="0.78" stroke-width="0.3"><path d="
M 426.00 51.00 
C 427.09 54.82 428.88 60.98 428.00 67.00 C 427.12 73.02 428.64 79.96 428.00 86.00 C 427.36 92.04 428.84 98.03 428.00 104.00 C 427.16 109.97 430.87 107.51 432.00 110.00
C 434.17 104.91 432.81 96.85 433.00 91.00 C 433.19 85.15 432.74 76.05 437.00 81.00
C 442.93 87.90 449.38 88.36 458.00 88.00
C 455.34 87.84 452.66 88.12 450.00 88.00
C 453.37 85.42 461.66 84.83 467.00 86.00
C 466.92 87.26 464.94 86.56 465.00 88.00
C 477.69 85.41 483.21 75.27 486.00 64.00
C 485.65 61.80 484.00 60.44 484.00 56.00 C 484.00 51.56 485.51 49.36 486.00 46.00
C 485.30 42.99 484.99 41.38 484.00 39.00
C 484.33 40.30 485.57 41.42 485.00 43.00
C 482.63 39.48 478.24 34.67 475.75 31.25 C 473.27 27.83 465.64 22.45 469.00 23.00
C 447.88 13.35 425.60 28.08 426.00 51.00
M 465.00 30.00 
C 470.19 35.71 472.82 38.29 475.33 46.67 C 477.83 55.05 475.04 62.41 474.00 70.00
C 472.56 80.54 455.42 84.82 447.00 80.00
C 446.47 77.22 448.61 79.24 450.00 79.00
C 442.42 77.03 438.10 68.06 437.00 63.00
C 436.60 63.83 436.02 64.87 435.00 65.00
C 434.25 60.14 431.91 50.83 436.00 48.00
C 437.98 44.41 439.46 41.30 440.00 37.00
C 441.48 25.13 455.81 28.11 464.00 27.00
C 464.57 27.94 465.15 28.82 465.00 30.00 Z"/>
</g>
<g fill="None" fill-opacity="0.0" stroke="#FFFFFF" stroke-opacity="0.78" stroke-width="0.3"><path d="
M 524.00 37.00 
C 523.70 38.37 526.57 42.25 522.00 41.00
C 525.14 48.57 525.13 59.43 522.00 67.00
C 526.20 64.75 524.65 69.80 524.00 72.00
C 525.38 75.02 526.20 75.85 528.00 78.00
C 528.08 78.02 535.72 78.29 537.00 83.00
C 535.55 85.48 533.89 80.85 533.00 83.00
C 536.56 85.59 538.44 86.99 543.00 88.00
C 550.68 88.52 560.33 86.43 565.92 82.87 C 571.51 79.31 579.02 69.52 580.00 63.00
C 580.10 57.76 578.78 51.07 580.00 46.00
C 578.96 46.52 579.27 47.73 578.00 48.00
C 580.45 35.01 565.47 28.67 561.00 21.00
C 560.21 20.90 558.77 20.83 558.00 21.00
C 554.55 21.76 548.33 23.33 545.00 21.00
C 547.76 18.84 552.49 20.55 556.00 20.00
C 542.78 14.61 529.38 26.12 524.00 37.00
M 554.00 30.00 
C 562.90 31.10 565.27 39.10 570.00 44.00
C 574.98 49.16 574.35 62.07 568.00 68.00
C 562.65 73.00 558.39 80.78 548.00 79.00 C 537.61 77.22 532.34 70.18 531.00 62.00
C 528.87 58.77 526.38 54.77 528.00 49.00
C 529.00 49.00 530.00 49.00 531.00 49.00
C 531.88 42.85 537.02 31.81 544.00 30.00
C 544.55 29.51 548.48 24.90 554.00 27.00
C 554.00 28.00 554.00 29.00 554.00 30.00
M 556.00 81.00 
C 552.33 82.17 545.53 83.61 543.00 80.00
C 546.05 80.12 552.83 79.06 556.00 81.00 Z"/>
</g>
<g fill="None" fill-opacity="0.0" stroke="#FFFFFF" stroke-opacity="0.29" stroke-width="0.3"><path d="
M 0.00 22.00 
C 12.80 19.72 25.70 21.14 23.00 35.00 C 20.30 48.86 24.69 57.32 24.00 67.00
C 25.29 66.56 26.21 65.42 26.00 64.00
C 26.19 49.70 25.73 34.64 26.00 21.00
C 17.77 18.90 8.63 20.50 0.00 20.00
L 0.00 22.00 Z"/>
</g>
<g fill="None" fill-opacity="0.0" stroke="#FFFFFF" stroke-opacity="0.25" stroke-width="0.3"><path d="
M 39.00 22.00 
C 39.07 22.86 49.43 21.67 52.00 22.00 C 54.57 22.33 63.18 22.25 66.00 21.00
C 62.25 37.99 68.85 60.14 62.00 74.00
C 63.25 73.75 63.39 74.21 64.00 75.00
C 66.44 69.20 67.07 63.12 67.00 56.00 C 66.93 48.88 66.03 40.94 67.00 34.00 C 67.97 27.06 66.62 17.36 59.00 20.00 C 51.38 22.64 42.09 15.61 39.00 22.00 Z"/>
</g>
<g fill="None" fill-opacity="0.0" stroke="#FFFFFF" stroke-opacity="0.35" stroke-width="0.3"><path d="
M 558.00 21.00 
C 557.31 20.81 557.17 20.14 556.00 20.00
C 552.49 20.55 547.76 18.84 545.00 21.00
C 548.33 23.33 554.55 21.76 558.00 21.00 Z"/>
</g>
<g fill="None" fill-opacity="0.0" stroke="#FFFFFF" stroke-opacity="0.95" stroke-width="0.3"><path d="
M 39.00 22.00 
C 36.39 27.39 39.79 36.84 39.00 43.00 C 38.21 49.16 38.97 56.74 37.78 62.78 C 36.59 68.81 28.07 70.53 26.00 64.00
C 26.21 65.42 25.29 66.56 24.00 67.00
C 24.69 57.32 20.30 48.86 23.00 35.00 C 25.70 21.14 12.80 19.72 0.00 22.00
L 0.00 76.00
C 9.02 90.07 26.57 90.05 42.00 89.00
C 38.08 87.05 52.15 84.93 52.00 85.00
C 53.85 80.46 59.03 77.84 62.00 74.00
C 68.85 60.14 62.25 37.99 66.00 21.00
C 63.18 22.25 54.57 22.33 52.00 22.00 C 49.43 21.67 39.07 22.86 39.00 22.00
M 36.00 69.00 
C 36.23 73.05 30.19 72.80 29.00 70.00
C 30.45 68.04 33.80 69.44 36.00 69.00 Z"/>
</g>
<g fill="None" fill-opacity="0.0" stroke="#FFFFFF" stroke-opacity="0.60" stroke-width="0.3"><path d="
M 173.00 23.00 
C 167.96 19.04 156.05 20.99 149.00 22.00
C 155.91 24.55 165.95 22.03 173.00 23.00 Z"/>
</g>
<g fill="None" fill-opacity="0.0" stroke="#FFFFFF" stroke-opacity="0.07" stroke-width="0.3"><path d="
M 293.00 23.00 
C 297.92 16.04 305.15 26.29 303.00 31.00 C 300.85 35.71 303.09 46.48 304.00 46.00
C 303.80 38.98 304.15 29.12 304.00 21.00
C 300.06 21.61 294.77 19.35 293.00 23.00 Z"/>
</g>
<g fill="None" fill-opacity="0.0" stroke="#FFFFFF" stroke-opacity="0.75" stroke-width="0.3"><path d="
M 306.00 44.00 
C 307.53 42.76 310.59 41.84 312.00 40.00
C 310.58 44.21 305.54 48.07 301.00 48.00
C 301.00 39.67 301.00 31.33 301.00 23.00
C 294.18 21.19 294.40 25.42 295.00 30.00 C 295.60 34.59 294.78 41.87 295.00 46.00 C 295.22 50.13 295.44 59.56 294.00 57.00
C 292.66 66.75 294.13 76.61 293.00 87.00
C 295.65 86.82 298.35 87.24 301.00 87.00
C 301.04 87.00 301.00 86.00 301.00 86.00
C 303.70 80.00 300.53 66.80 302.00 60.00
C 302.67 56.89 304.36 55.89 306.75 52.75 C 309.14 49.61 314.93 49.66 312.00 54.00
C 312.00 54.00 311.84 54.56 312.00 55.00
C 314.35 55.52 321.60 61.19 321.75 64.25 C 321.90 67.30 327.25 71.93 329.30 74.70 C 331.35 77.47 340.16 85.70 337.00 87.00
C 340.92 86.34 344.27 88.01 348.00 88.00
C 341.75 72.42 326.15 60.23 319.00 45.00
C 326.18 40.11 332.83 33.47 339.00 27.00
C 340.61 28.41 339.70 29.44 342.00 30.00
C 340.33 28.89 342.40 24.99 343.00 24.00
C 343.06 23.51 343.00 23.00 343.00 23.00
C 340.59 22.10 351.68 21.37 356.00 22.00 C 360.32 22.63 370.69 20.91 375.00 22.00 C 379.31 23.09 390.38 19.25 393.00 23.00
C 385.28 18.85 372.24 21.67 362.00 21.00 C 351.76 20.33 340.35 21.51 330.00 21.00
C 323.80 29.43 312.63 36.35 306.00 44.00
M 318.00 43.00 
C 318.34 45.46 318.85 47.42 320.00 50.00
C 316.40 50.37 314.12 44.26 318.00 43.00 Z"/>
</g>
<g fill="None" fill-opacity="0.0" stroke="#FFFFFF" stroke-opacity="0.40" stroke-width="0.3"><path d="
M 399.00 23.00 
C 400.42 23.72 400.94 23.49 402.00 24.00
C 403.06 24.51 404.34 25.59 406.00 25.00
C 407.82 43.39 402.25 64.20 409.00 81.00
C 413.29 77.47 419.01 79.45 417.00 86.00
C 415.85 88.50 414.25 87.56 412.00 88.00
C 418.15 92.45 419.35 81.91 417.00 78.00
C 407.27 79.77 408.97 66.33 410.00 59.00 C 411.03 51.67 407.22 40.33 410.00 33.00 C 412.78 25.67 403.35 14.00 399.00 23.00 Z"/>
</g>
<g fill="None" fill-opacity="0.0" stroke="#FFFFFF" stroke-opacity="0.66" stroke-width="0.3"><path d="
M 515.00 78.00 
C 500.56 80.43 509.43 58.67 507.00 51.00 C 504.57 43.33 512.39 21.43 502.00 21.00 C 491.61 20.57 496.43 41.34 496.00 50.00 C 495.57 58.66 495.03 75.08 497.10 83.90 C 499.17 92.72 522.31 91.04 515.00 78.00
M 509.00 80.00 
C 500.30 79.51 504.62 63.70 504.00 55.00 C 503.38 46.30 503.63 32.25 505.00 24.00
C 507.83 32.59 504.66 45.93 506.00 55.00 C 507.34 64.07 502.28 76.28 509.00 80.00 Z"/>
</g>
<g fill="None" fill-opacity="0.0" stroke="#FBFBFB" stroke-opacity="0.32" stroke-width="0.3"><path d="
M 580.00 46.00 
C 581.42 46.21 582.56 45.29 583.00 44.00
C 577.56 36.94 572.85 22.57 561.00 21.00
C 565.47 28.67 580.45 35.01 578.00 48.00
C 579.27 47.73 578.96 46.52 580.00 46.00 Z"/>
</g>
<g fill="None" fill-opacity="0.0" stroke="#FFFFFF" stroke-opacity="0.42" stroke-width="0.3"><path d="
M 293.00 23.00 
C 290.69 27.78 294.04 37.84 293.01 42.99 C 291.98 48.14 294.14 51.98 294.00 57.00
C 295.44 59.56 295.22 50.13 295.00 46.00 C 294.78 41.87 295.60 34.59 295.00 30.00 C 294.40 25.42 294.18 21.19 301.00 23.00
C 301.00 31.33 301.00 39.67 301.00 48.00
C 305.54 48.07 310.58 44.21 312.00 40.00
C 310.59 41.84 307.53 42.76 306.00 44.00
C 305.26 44.85 305.13 45.41 304.00 46.00
C 303.09 46.48 300.85 35.71 303.00 31.00 C 305.15 26.29 297.92 16.04 293.00 23.00 Z"/>
</g>
<g fill="None" fill-opacity="0.0" stroke="#FFFFFF" stroke-opacity="0.35" stroke-width="0.3"><path d="
M 343.00 23.00 
C 351.02 22.27 362.19 22.70 370.00 23.00 C 377.81 23.30 392.17 19.10 392.00 29.00
C 385.11 26.98 377.29 28.44 370.00 28.00
C 370.00 45.00 370.00 62.00 370.00 79.00
C 371.29 78.56 372.21 77.42 372.00 76.00
C 372.00 60.67 372.00 45.33 372.00 30.00
C 379.00 30.00 386.00 30.00 393.00 30.00
C 392.33 27.98 393.90 24.91 393.00 23.00
C 390.38 19.25 379.31 23.09 375.00 22.00 C 370.69 20.91 360.32 22.63 356.00 22.00 C 351.68 21.37 340.59 22.10 343.00 23.00 Z"/>
</g>
<g fill="None" fill-opacity="0.0" stroke="#FFFFFF" stroke-opacity="0.40" stroke-width="0.3"><path d="
M 484.00 39.00 
C 481.94 30.93 476.37 26.37 469.00 23.00
C 465.64 22.45 473.27 27.83 475.75 31.25 C 478.24 34.67 482.63 39.48 485.00 43.00
C 485.57 41.42 484.33 40.30 484.00 39.00 Z"/>
</g>
<g fill="None" fill-opacity="0.0" stroke="#FFFFFF" stroke-opacity="0.86" stroke-width="0.3"><path d="
M 343.00 24.00 
C 342.95 24.42 343.53 26.77 343.00 28.00
C 347.88 30.08 362.87 23.91 363.97 31.03 C 365.08 38.15 363.82 47.80 364.00 55.00 C 364.18 62.20 365.49 72.30 362.00 77.00
C 362.44 88.54 377.84 94.73 381.22 83.22 C 384.60 71.72 375.29 82.58 372.00 76.00
C 372.21 77.42 371.29 78.56 370.00 79.00
C 370.00 62.00 370.00 45.00 370.00 28.00
C 377.29 28.44 385.11 26.98 392.00 29.00
C 392.17 19.10 377.81 23.30 370.00 23.00 C 362.19 22.70 351.02 22.27 343.00 23.00
C 343.00 23.00 343.06 23.51 343.00 24.00
M 380.00 85.00 
C 378.93 90.40 369.40 88.12 368.00 86.00
C 371.09 83.81 376.16 85.57 380.00 85.00 Z"/>
</g>
<g fill="None" fill-opacity="0.0" stroke="#FFFFFF" stroke-opacity="0.24" stroke-width="0.3"><path d="
M 406.00 88.00 
C 409.08 89.61 405.50 85.52 405.00 85.00
C 403.61 83.56 401.54 82.20 400.00 81.00
C 402.99 62.67 399.01 41.93 402.00 24.00
C 400.94 23.49 400.42 23.72 399.00 23.00
C 395.93 29.35 400.46 39.92 399.00 47.00 C 397.54 54.08 399.82 63.81 399.00 71.00 C 398.18 78.19 398.57 86.02 406.00 88.00 Z"/>
</g>
<g fill="None" fill-opacity="0.0" stroke="#FFFFFF" stroke-opacity="0.46" stroke-width="0.3"><path d="
M 342.00 30.00 
C 348.67 30.00 355.33 30.00 362.00 30.00
C 362.45 45.65 361.40 61.36 362.00 77.00
C 365.49 72.30 364.18 62.20 364.00 55.00 C 363.82 47.80 365.08 38.15 363.97 31.03 C 362.87 23.91 347.88 30.08 343.00 28.00
C 343.53 26.77 342.95 24.42 343.00 24.00
C 342.40 24.99 340.33 28.89 342.00 30.00 Z"/>
</g>
<g fill="None" fill-opacity="0.0" stroke="#FFFFFF" stroke-opacity="0.93" stroke-width="0.3"><path d="
M 405.00 85.00 
C 406.77 85.53 416.45 83.61 417.00 86.00
C 419.01 79.45 413.29 77.47 409.00 81.00
C 402.25 64.20 407.82 43.39 406.00 25.00
C 404.34 25.59 403.06 24.51 402.00 24.00
C 399.01 41.93 402.99 62.67 400.00 81.00
C 401.54 82.20 403.61 83.56 405.00 85.00 Z"/>
</g>
<g fill="None" fill-opacity="0.0" stroke="#FFFFFF" stroke-opacity="0.57" stroke-width="0.3"><path d="
M 509.00 80.00 
C 502.28 76.28 507.34 64.07 506.00 55.00 C 504.66 45.93 507.83 32.59 505.00 24.00
C 503.63 32.25 503.38 46.30 504.00 55.00 C 504.62 63.70 500.30 79.51 509.00 80.00 Z"/>
</g>
<g fill="None" fill-opacity="0.0" stroke="#FFFFFF" stroke-opacity="0.49" stroke-width="0.3"><path d="
M 126.00 34.00 
C 125.48 31.22 124.87 29.60 124.00 27.00
C 122.82 27.15 121.94 26.57 121.00 26.00
C 123.07 30.55 122.41 38.35 128.00 40.00
C 126.26 37.96 126.45 36.43 126.00 34.00 Z"/>
</g>
<g fill="None" fill-opacity="0.0" stroke="#000000" stroke-opacity="0.00" stroke-width="0.3"><path d="
M 252.00 43.00 
C 265.02 42.42 260.40 19.91 247.00 30.00
C 247.94 34.62 248.70 39.29 252.00 43.00 Z"/>
</g>
<g fill="None" fill-opacity="0.0" stroke="#FFFFFF" stroke-opacity="0.39" stroke-width="0.3"><path d="
M 440.00 37.00 
C 444.89 29.42 456.81 29.54 465.00 30.00
C 465.15 28.82 464.57 27.94 464.00 27.00
C 455.81 28.11 441.48 25.13 440.00 37.00 Z"/>
</g>
<g fill="None" fill-opacity="0.0" stroke="#FFFFFF" stroke-opacity="0.34" stroke-width="0.3"><path d="
M 544.00 30.00 
C 546.61 29.32 551.32 29.67 554.00 30.00
C 554.00 29.00 554.00 28.00 554.00 27.00
C 548.48 24.90 544.55 29.51 544.00 30.00 Z"/>
</g>
<g fill="None" fill-opacity="0.0" stroke="#000000" stroke-opacity="0.00" stroke-width="0.3"><path d="
M 440.00 37.00 
C 439.46 41.30 437.98 44.41 436.00 48.00
C 435.54 51.34 436.43 60.40 437.00 63.00
C 438.10 68.06 442.42 77.03 450.00 79.00
C 458.65 78.57 469.19 77.90 474.00 70.00
C 475.04 62.41 477.83 55.05 475.33 46.67 C 472.82 38.29 470.19 35.71 465.00 30.00
C 456.81 29.54 444.89 29.42 440.00 37.00 Z"/>
</g>
<g fill="None" fill-opacity="0.0" stroke="#000000" stroke-opacity="0.00" stroke-width="0.3"><path d="
M 531.00 49.00 
C 530.47 52.73 530.39 58.28 531.00 62.00
C 532.34 70.18 537.61 77.22 548.00 79.00 C 558.39 80.78 562.65 73.00 568.00 68.00
C 570.39 63.51 571.42 49.66 570.00 44.00
C 565.27 39.10 562.90 31.10 554.00 30.00
C 551.32 29.67 546.61 29.32 544.00 30.00
C 537.02 31.81 531.88 42.85 531.00 49.00 Z"/>
</g>
<g fill="None" fill-opacity="0.0" stroke="#FFFFFF" stroke-opacity="0.40" stroke-width="0.3"><path d="
M 524.00 72.00 
C 524.65 69.80 526.20 64.75 522.00 67.00
C 525.13 59.43 525.14 48.57 522.00 41.00
C 526.57 42.25 523.70 38.37 524.00 37.00
C 518.43 48.26 518.85 60.74 524.00 72.00 Z"/>
</g>
<g fill="None" fill-opacity="0.0" stroke="#FFFFFF" stroke-opacity="0.26" stroke-width="0.3"><path d="
M 174.00 49.00 
C 174.08 48.81 175.52 48.89 176.00 49.00
C 176.16 47.68 176.35 47.86 177.00 47.00
C 181.57 37.00 192.55 41.35 191.00 52.00 C 189.45 62.65 191.83 72.59 191.00 83.00 C 190.17 93.41 191.62 102.69 191.00 113.00
C 197.73 109.90 219.91 118.89 221.00 109.00 C 222.09 99.11 221.45 85.08 221.00 75.00 C 220.55 64.92 223.76 50.84 220.00 42.00
C 217.66 52.13 219.40 62.28 219.00 73.00 C 218.60 83.72 219.19 95.09 219.00 106.00 C 218.81 116.91 200.57 111.04 193.00 111.00
C 195.32 90.17 193.34 68.25 194.00 47.00
C 189.96 47.01 193.67 43.05 193.00 41.00
C 184.90 35.27 174.77 38.97 174.00 49.00 Z"/>
</g>
<g fill="None" fill-opacity="0.0" stroke="#FFFFFF" stroke-opacity="0.72" stroke-width="0.3"><path d="
M 194.00 47.00 
C 193.34 68.25 195.32 90.17 193.00 111.00
C 200.57 111.04 218.81 116.91 219.00 106.00 C 219.19 95.09 218.60 83.72 219.00 73.00 C 219.40 62.28 217.66 52.13 220.00 42.00
C 220.11 41.53 220.11 40.47 220.00 40.00
C 218.86 39.97 218.28 38.47 217.00 39.00
C 217.05 61.81 216.96 86.47 217.00 110.00
C 209.67 110.00 202.33 110.00 195.00 110.00
C 194.50 99.72 195.66 87.05 195.00 77.00 C 194.34 66.95 196.73 53.70 194.00 47.00 Z"/>
</g>
<g fill="None" fill-opacity="0.0" stroke="#FFFFFF" stroke-opacity="0.29" stroke-width="0.3"><path d="
M 239.00 41.00 
C 238.17 44.31 241.86 45.46 243.00 48.00
C 235.79 50.94 232.34 56.41 230.00 63.00
C 231.19 66.28 232.90 58.57 235.75 56.75 C 238.61 54.94 241.02 50.00 245.00 50.00
C 246.38 45.56 239.91 42.04 239.00 41.00 Z"/>
</g>
<g fill="None" fill-opacity="0.0" stroke="#FFFFFF" stroke-opacity="0.37" stroke-width="0.3"><path d="
M 266.00 59.00 
C 265.33 57.04 257.94 51.65 260.75 49.75 C 263.57 47.86 266.45 44.03 268.00 41.00
C 264.17 41.04 256.69 47.76 257.00 53.00
C 262.15 51.75 262.75 58.57 265.00 62.00
C 267.82 62.24 266.48 60.41 266.00 59.00 Z"/>
</g>
<g fill="None" fill-opacity="0.0" stroke="#FFFFFF" stroke-opacity="0.51" stroke-width="0.3"><path d="
M 318.00 43.00 
C 314.12 44.26 316.40 50.37 320.00 50.00
C 318.85 47.42 318.34 45.46 318.00 43.00 Z"/>
</g>
<g fill="None" fill-opacity="0.0" stroke="#FFFFFF" stroke-opacity="0.40" stroke-width="0.3"><path d="
M 570.00 44.00 
C 571.42 49.66 570.39 63.51 568.00 68.00
C 574.35 62.07 574.98 49.16 570.00 44.00 Z"/>
</g>
<g fill="None" fill-opacity="0.0" stroke="#FFFFFF" stroke-opacity="0.38" stroke-width="0.3"><path d="
M 486.00 64.00 
C 487.67 57.24 487.60 52.87 486.00 46.00
C 485.51 49.36 484.00 51.56 484.00 56.00 C 484.00 60.44 485.65 61.80 486.00 64.00 Z"/>
</g>
<g fill="None" fill-opacity="0.0" stroke="#FFFFFF" stroke-opacity="0.39" stroke-width="0.3"><path d="
M 437.00 63.00 
C 436.43 60.40 435.54 51.34 436.00 48.00
C 431.91 50.83 434.25 60.14 435.00 65.00
C 436.02 64.87 436.60 63.83 437.00 63.00 Z"/>
</g>
<g fill="None" fill-opacity="0.0" stroke="#FFFFFF" stroke-opacity="0.52" stroke-width="0.3"><path d="
M 176.00 49.00 
C 175.52 48.89 174.08 48.81 174.00 49.00
C 174.00 61.00 174.00 73.00 174.00 85.00
C 166.49 85.64 157.76 83.70 151.00 86.00
C 159.25 84.20 175.39 90.91 176.00 80.00 C 176.61 69.09 174.69 59.66 176.00 49.00 Z"/>
</g>
<g fill="None" fill-opacity="0.0" stroke="#FFFFFF" stroke-opacity="0.51" stroke-width="0.3"><path d="
M 531.00 62.00 
C 530.39 58.28 530.47 52.73 531.00 49.00
C 530.00 49.00 529.00 49.00 528.00 49.00
C 526.38 54.77 528.87 58.77 531.00 62.00 Z"/>
</g>
<g fill="None" fill-opacity="0.0" stroke="#FFFFFF" stroke-opacity="0.31" stroke-width="0.3"><path d="
M 302.00 60.00 
C 302.19 64.33 306.40 83.54 301.00 86.00
C 301.00 86.00 301.04 87.00 301.00 87.00
C 302.00 87.00 303.00 87.00 304.00 87.00
C 305.69 78.84 298.73 53.64 312.00 54.00
C 314.93 49.66 309.14 49.61 306.75 52.75 C 304.36 55.89 302.67 56.89 302.00 60.00 Z"/>
</g>
<g fill="None" fill-opacity="0.0" stroke="#FFFFFF" stroke-opacity="0.60" stroke-width="0.3"><path d="
M 426.00 109.00 
C 426.45 110.18 428.62 110.09 428.00 112.00
C 429.69 111.86 434.06 112.84 432.00 110.00
C 430.87 107.51 427.16 109.97 428.00 104.00 C 428.84 98.03 427.36 92.04 428.00 86.00 C 428.64 79.96 427.12 73.02 428.00 67.00 C 428.88 60.98 427.09 54.82 426.00 51.00
C 426.34 70.31 425.22 89.71 426.00 109.00 Z"/>
</g>
<g fill="None" fill-opacity="0.0" stroke="#FFFFFF" stroke-opacity="0.32" stroke-width="0.3"><path d="
M 270.00 55.00 
C 271.54 50.95 280.38 51.91 279.00 57.00
C 274.64 57.90 279.92 68.52 274.00 69.00
C 272.37 75.33 278.53 76.90 282.00 79.00
C 278.09 74.04 274.69 68.89 280.67 62.67 C 286.65 56.45 271.04 45.11 270.00 55.00 Z"/>
</g>
<g fill="None" fill-opacity="0.0" stroke="#FFFFFF" stroke-opacity="0.49" stroke-width="0.3"><path d="
M 270.00 55.00 
C 269.90 55.96 270.20 57.06 270.00 58.00
C 269.60 61.55 274.39 58.17 273.00 56.00
C 275.01 57.09 279.31 53.77 279.00 57.00
C 280.38 51.91 271.54 50.95 270.00 55.00 Z"/>
</g>
<g fill="None" fill-opacity="0.0" stroke="#FFFFFF" stroke-opacity="0.37" stroke-width="0.3"><path d="
M 106.00 64.00 
C 106.77 62.84 107.08 60.49 109.00 61.00
C 109.73 64.55 111.00 67.66 112.00 71.00
C 113.16 71.48 113.94 72.12 115.00 71.00
C 110.63 65.82 113.94 57.01 107.00 54.00
C 106.12 57.03 106.66 57.52 104.80 59.75 C 102.94 61.99 106.04 65.36 106.00 64.00 Z"/>
</g>
<g fill="None" fill-opacity="0.0" stroke="#FFFFFF" stroke-opacity="0.36" stroke-width="0.3"><path d="
M 337.00 87.00 
C 340.16 85.70 331.35 77.47 329.30 74.70 C 327.25 71.93 321.90 67.30 321.75 64.25 C 321.60 61.19 314.35 55.52 312.00 55.00
C 314.05 60.68 320.63 67.08 324.08 71.92 C 327.54 76.75 331.90 85.62 337.00 87.00 Z"/>
</g>
<g fill="None" fill-opacity="0.0" stroke="#000000" stroke-opacity="0.00" stroke-width="0.3"><path d="
M 263.00 73.00 
C 257.99 67.28 249.18 47.98 241.93 61.93 C 234.68 75.87 254.70 82.86 263.00 73.00 Z"/>
</g>
<g fill="None" fill-opacity="0.0" stroke="#FFFFFF" stroke-opacity="0.45" stroke-width="0.3"><path d="
M 301.00 86.00 
C 306.40 83.54 302.19 64.33 302.00 60.00
C 300.53 66.80 303.70 80.00 301.00 86.00 Z"/>
</g>
<g fill="None" fill-opacity="0.0" stroke="#FFFFFF" stroke-opacity="0.24" stroke-width="0.3"><path d="
M 543.00 88.00 
C 560.36 91.85 579.61 82.58 580.00 63.00
C 579.02 69.52 571.51 79.31 565.92 82.87 C 560.33 86.43 550.68 88.52 543.00 88.00 Z"/>
</g>
<g fill="None" fill-opacity="0.0" stroke="#FFFFFF" stroke-opacity="0.60" stroke-width="0.3"><path d="
M 36.00 69.00 
C 33.80 69.44 30.45 68.04 29.00 70.00
C 30.19 72.80 36.23 73.05 36.00 69.00 Z"/>
</g>
<g fill="None" fill-opacity="0.0" stroke="#FFFFFF" stroke-opacity="0.37" stroke-width="0.3"><path d="
M 450.00 79.00 
C 448.61 79.24 446.47 77.22 447.00 80.00
C 455.42 84.82 472.56 80.54 474.00 70.00
C 469.19 77.90 458.65 78.57 450.00 79.00 Z"/>
</g>
<g fill="None" fill-opacity="0.0" stroke="#FFFFFF" stroke-opacity="0.49" stroke-width="0.3"><path d="
M 52.00 85.00 
C 53.73 84.20 54.22 82.59 55.00 81.00
C 56.14 81.93 57.55 82.08 59.00 82.00
C 61.95 79.46 62.95 77.49 64.00 75.00
C 63.39 74.21 63.25 73.75 62.00 74.00
C 59.03 77.84 53.85 80.46 52.00 85.00 Z"/>
</g>
<g fill="None" fill-opacity="0.0" stroke="#FFFFFF" stroke-opacity="0.51" stroke-width="0.3"><path d="
M 528.00 78.00 
C 529.82 80.18 530.61 81.26 533.00 83.00
C 533.89 80.85 535.55 85.48 537.00 83.00
C 535.72 78.29 528.08 78.02 528.00 78.00 Z"/>
</g>
<g fill="None" fill-opacity="0.0" stroke="#FFFFFF" stroke-opacity="0.41" stroke-width="0.3"><path d="
M 432.00 110.00 
C 434.06 112.84 429.69 111.86 428.00 112.00
C 428.62 110.09 426.45 110.18 426.00 109.00
C 422.59 114.52 432.74 112.83 436.00 113.00
C 434.29 102.70 437.83 90.48 437.00 81.00
C 432.74 76.05 433.19 85.15 433.00 91.00 C 432.81 96.85 434.17 104.91 432.00 110.00 Z"/>
</g>
<g fill="None" fill-opacity="0.0" stroke="#FFFFFF" stroke-opacity="0.64" stroke-width="0.3"><path d="
M 556.00 81.00 
C 552.83 79.06 546.05 80.12 543.00 80.00
C 545.53 83.61 552.33 82.17 556.00 81.00 Z"/>
</g>
<g fill="None" fill-opacity="0.0" stroke="#FFFFFF" stroke-opacity="0.28" stroke-width="0.3"><path d="
M 52.00 85.00 
C 52.15 84.93 38.08 87.05 42.00 89.00
C 48.54 88.55 54.17 86.16 59.00 82.00
C 57.55 82.08 56.14 81.93 55.00 81.00
C 54.22 82.59 53.73 84.20 52.00 85.00 Z"/>
</g>
<g fill="None" fill-opacity="0.0" stroke="#FFFFFF" stroke-opacity="0.43" stroke-width="0.3"><path d="
M 272.00 83.00 
C 273.78 84.49 272.85 86.21 276.00 87.00
C 276.18 85.47 278.82 86.01 278.00 84.00
C 276.03 81.07 272.04 83.00 272.00 83.00 Z"/>
</g>
<g fill="None" fill-opacity="0.0" stroke="#FFFFFF" stroke-opacity="0.39" stroke-width="0.3"><path d="
M 72.00 87.00 
C 77.61 88.32 89.37 88.25 95.00 87.00
C 90.01 81.37 77.36 88.54 71.00 83.00
C 71.14 84.03 70.80 86.37 72.00 87.00 Z"/>
</g>
<g fill="None" fill-opacity="0.0" stroke="#FFFFFF" stroke-opacity="0.33" stroke-width="0.3"><path d="
M 240.00 87.00 
C 245.12 89.45 250.55 89.39 256.00 88.00
C 256.80 85.93 259.99 86.65 261.00 85.00
C 257.84 82.94 251.40 87.81 248.01 85.99 C 244.62 84.18 238.72 86.77 240.00 87.00 Z"/>
</g>
<g fill="None" fill-opacity="0.0" stroke="#FFFFFF" stroke-opacity="0.57" stroke-width="0.3"><path d="
M 380.00 85.00 
C 376.16 85.57 371.09 83.81 368.00 86.00
C 369.40 88.12 378.93 90.40 380.00 85.00 Z"/>
</g>
<g fill="None" fill-opacity="0.0" stroke="#FFFFFF" stroke-opacity="0.53" stroke-width="0.3"><path d="
M 406.00 88.00 
C 408.37 88.63 409.34 88.10 412.00 88.00
C 414.25 87.56 415.85 88.50 417.00 86.00
C 416.45 83.61 406.77 85.53 405.00 85.00
C 405.50 85.52 409.08 89.61 406.00 88.00 Z"/>
</g>
<g fill="None" fill-opacity="0.0" stroke="#FFFFFF" stroke-opacity="0.46" stroke-width="0.3"><path d="
M 458.00 88.00 
C 461.05 88.18 462.14 88.58 465.00 88.00
C 464.94 86.56 466.92 87.26 467.00 86.00
C 461.66 84.83 453.37 85.42 450.00 88.00
C 452.66 88.12 455.34 87.84 458.00 88.00 Z"/>
</g>
<g fill="None" fill-opacity="0.0" stroke="#FFFFFF" stroke-opacity="0.97" stroke-width="0.3"><path d="
M 115.00 114.00 
C 115.55 119.88 115.78 128.62 115.00 132.00
C 115.05 133.23 114.61 135.05 115.00 137.00
C 116.05 142.32 115.49 146.77 115.00 152.00
C 114.73 154.83 114.73 158.17 115.00 161.00
C 115.49 166.19 115.49 170.83 115.00 176.00
C 114.73 178.83 114.73 182.17 115.00 185.00
C 115.46 189.87 115.46 194.14 115.00 199.00
C 114.71 202.14 114.71 205.86 115.00 209.00
C 115.46 213.87 115.46 218.14 115.00 223.00
C 114.71 226.14 114.71 229.86 115.00 233.00
C 115.89 242.51 115.88 252.89 115.00 262.00
C 116.18 268.40 111.23 275.53 116.00 281.00
C 126.34 277.94 137.85 281.93 148.00 280.00
C 151.59 257.87 142.71 229.15 149.22 207.22 C 155.73 185.30 190.10 187.45 191.00 211.00
C 193.22 219.32 191.84 230.68 193.00 241.00 C 194.16 251.32 192.55 264.90 191.00 273.00
C 190.48 286.07 207.09 278.89 218.00 280.00 C 228.91 281.11 224.60 261.45 225.00 252.00 C 225.40 242.55 224.88 227.14 225.00 217.00 C 225.12 206.86 226.10 193.12 221.77 184.23 C 217.44 175.34 210.74 172.33 202.22 168.78 C 193.71 165.22 180.36 165.22 171.22 167.22 C 162.08 169.23 156.20 175.48 148.00 179.00
C 148.00 153.67 148.00 128.33 148.00 103.00
C 137.00 103.00 126.00 103.00 115.00 103.00
C 115.26 106.64 114.66 110.37 115.00 114.00 Z"/>
</g>
<g fill="None" fill-opacity="0.0" stroke="#FFFFFF" stroke-opacity="0.43" stroke-width="0.3"><path d="
M 115.00 132.00 
C 115.78 128.62 115.55 119.88 115.00 114.00
C 114.46 119.57 114.76 126.09 115.00 132.00 Z"/>
</g>
<g fill="None" fill-opacity="0.0" stroke="#FFFFFF" stroke-opacity="0.96" stroke-width="0.3"><path d="
M 576.00 123.00 
C 564.75 123.07 554.05 121.14 543.00 123.00
C 543.02 175.85 542.89 227.42 543.00 280.00
C 554.00 280.00 565.00 280.00 576.00 280.00
C 576.16 227.85 575.92 175.67 576.00 123.00 Z"/>
</g>
<g fill="None" fill-opacity="0.0" stroke="#FFFFFF" stroke-opacity="0.41" stroke-width="0.3"><path d="
M 115.00 152.00 
C 115.49 146.77 116.05 142.32 115.00 137.00
C 114.92 141.35 114.56 147.48 115.00 152.00 Z"/>
</g>
<g fill="None" fill-opacity="0.0" stroke="#FFFFFF" stroke-opacity="0.96" stroke-width="0.3"><path d="
M 401.00 147.00 
C 389.96 148.39 378.42 146.11 368.00 148.00
C 370.19 154.53 367.86 161.73 369.00 168.00
C 364.15 170.14 358.28 168.47 353.00 169.00
C 353.63 175.24 352.15 181.76 353.03 187.97 C 353.91 194.18 364.71 189.58 369.00 191.00
C 369.90 214.76 367.35 238.60 370.00 262.00 C 372.66 285.39 402.31 281.59 420.00 281.00
C 420.00 273.33 420.00 265.67 420.00 258.00
C 409.04 261.12 400.51 255.73 402.00 245.00 C 403.49 234.27 401.97 225.99 402.00 216.00 C 402.03 206.01 402.64 200.30 402.00 190.00
C 412.17 190.26 420.56 194.68 421.00 181.00 C 421.44 167.32 414.92 167.91 402.00 169.00
C 401.40 161.74 403.24 153.84 401.00 147.00 Z"/>
</g>
<g fill="None" fill-opacity="0.0" stroke="#FFFFFF" stroke-opacity="0.41" stroke-width="0.3"><path d="
M 115.00 176.00 
C 115.49 170.83 115.49 166.19 115.00 161.00
C 114.55 165.65 114.54 171.28 115.00 176.00 Z"/>
</g>
<g fill="None" fill-opacity="0.0" stroke="#FFFFFF" stroke-opacity="0.98" stroke-width="0.3"><path d="
M 286.00 283.00 
C 287.47 281.43 300.75 283.00 304.00 283.00
C 350.63 283.00 373.62 225.58 348.75 190.25 C 323.89 154.91 267.33 156.23 242.30 190.30 C 217.28 224.38 240.19 283.97 286.00 283.00 Z"/>
</g>
<g fill="None" fill-opacity="0.0" stroke="#FFFFFF" stroke-opacity="0.97" stroke-width="0.3"><path d="
M 454.00 233.00 
C 466.58 232.71 478.88 233.62 491.00 233.00 C 503.12 232.38 517.22 233.89 529.00 233.00 C 540.77 232.11 533.65 211.49 531.92 203.08 C 530.20 194.66 524.72 185.45 518.25 178.75 C 511.78 172.06 501.57 168.70 492.22 166.78 C 482.88 164.86 466.55 163.67 457.08 167.08 C 447.60 170.48 440.60 174.59 433.75 181.75 C 426.91 188.92 423.17 197.03 420.78 206.78 C 418.39 216.53 417.52 230.87 420.22 240.78 C 422.93 250.69 425.65 258.68 432.75 266.25 C 439.85 273.82 447.13 277.18 456.78 280.22 C 466.43 283.27 481.88 284.20 491.99 281.99 C 502.10 279.79 510.32 276.46 518.25 270.25 C 526.18 264.04 530.14 255.16 532.00 246.00
C 521.00 246.00 510.00 246.00 499.00 246.00
C 488.67 267.55 450.75 257.68 454.00 233.00 Z"/>
</g>
<g fill="None" fill-opacity="0.0" stroke="#FEFEFE" stroke-opacity="0.95" stroke-width="0.3"><path d="
M 639.00 284.00 
L 645.00 284.00
C 665.60 282.39 692.68 273.32 695.00 249.00
L 695.00 246.00
C 694.78 235.71 686.96 223.04 676.69 220.31 C 666.43 217.57 653.26 209.74 643.22 209.78 C 633.18 209.82 615.07 199.34 624.31 191.31 C 633.54 183.27 651.12 186.64 656.25 196.75 C 661.37 206.87 679.24 203.00 691.00 203.00
C 689.53 191.30 684.48 179.80 673.75 173.25 C 663.01 166.71 650.64 164.71 638.00 165.00 C 625.36 165.29 612.42 168.08 602.25 175.25 C 592.07 182.41 586.53 193.93 589.00 206.00 C 591.48 218.06 599.10 226.52 611.98 230.02 C 624.86 233.53 634.08 236.92 648.93 239.07 C 663.78 241.22 662.74 259.31 647.00 259.00 C 631.26 258.69 620.55 258.79 617.00 243.00
C 605.67 243.00 594.33 243.00 583.00 243.00
C 582.58 272.44 614.60 284.33 639.00 284.00 Z"/>
</g>
<g fill="None" fill-opacity="0.0" stroke="#FFFFFF" stroke-opacity="0.41" stroke-width="0.3"><path d="
M 115.00 199.00 
C 115.46 194.14 115.46 189.87 115.00 185.00
C 114.58 189.34 114.57 194.60 115.00 199.00 Z"/>
</g>
<g fill="None" fill-opacity="0.0" stroke="#FFFFFF" stroke-opacity="0.42" stroke-width="0.3"><path d="
M 115.00 223.00 
C 115.46 218.14 115.46 213.87 115.00 209.00
C 114.58 213.34 114.57 218.60 115.00 223.00 Z"/>
</g>
<g fill="None" fill-opacity="0.0" stroke="#FFFFFF" stroke-opacity="0.43" stroke-width="0.3"><path d="
M 191.00 273.00 
C 192.55 264.90 194.16 251.32 193.00 241.00 C 191.84 230.68 193.22 219.32 191.00 211.00
C 191.80 231.84 190.60 252.77 191.00 273.00 Z"/>
</g>
<g fill="None" fill-opacity="0.0" stroke="#FFFFFF" stroke-opacity="0.45" stroke-width="0.3"><path d="
M 115.00 262.00 
C 115.88 252.89 115.89 242.51 115.00 233.00
C 114.12 242.12 114.16 252.47 115.00 262.00 Z"/>
</g>
<g fill="None" fill-opacity="0.0" stroke="#000000" stroke-opacity="0.00" stroke-width="0.3"><path d="
M 645.00 284.00 
L 695.00 284.00
L 695.00 249.00
C 692.68 273.32 665.60 282.39 645.00 284.00 Z"/>
</g>
<g fill="None" fill-opacity="0.0" stroke="#FFFFFF" stroke-opacity="0.17" stroke-width="0.3"><path d="
M 286.00 283.00 
C 286.00 283.00 286.00 283.50 286.00 284.00
L 304.00 284.00
C 304.00 284.00 304.04 283.00 304.00 283.00
C 300.75 283.00 287.47 281.43 286.00 283.00 Z"/>
</g>
<g fill="#000000" fill-opacity="0.00" stroke="None"><path d="
M 0.00 20.00 
C 8.63 20.50 17.77 18.90 26.00 21.00
C 25.73 34.64 26.19 49.70 26.00 64.00
C 28.07 70.53 36.59 68.81 37.78 62.78 C 38.97 56.74 38.21 49.16 39.00 43.00 C 39.79 36.84 36.39 27.39 39.00 22.00
C 42.09 15.61 51.38 22.64 59.00 20.00 C 66.62 17.36 67.97 27.06 67.00 34.00 C 66.03 40.94 66.93 48.88 67.00 56.00 C 67.07 63.12 66.44 69.20 64.00 75.00
C 62.95 77.49 61.95 79.46 59.00 82.00
C 54.17 86.16 48.54 88.55 42.00 89.00
C 26.57 90.05 9.02 90.07 0.00 76.00
L 0.00 284.00
L 286.00 284.00
C 286.00 283.50 286.00 283.00 286.00 283.00
C 240.19 283.97 217.28 224.38 242.30 190.30 C 267.33 156.23 323.89 154.91 348.75 190.25 C 373.62 225.58 350.63 283.00 304.00 283.00
C 304.04 283.00 304.00 284.00 304.00 284.00
L 639.00 284.00
C 614.60 284.33 582.58 272.44 583.00 243.00
C 594.33 243.00 605.67 243.00 617.00 243.00
C 620.55 258.79 631.26 258.69 647.00 259.00 C 662.74 259.31 663.78 241.22 648.93 239.07 C 634.08 236.92 624.86 233.53 611.98 230.02 C 599.10 226.52 591.48 218.06 589.00 206.00 C 586.53 193.93 592.07 182.41 602.25 175.25 C 612.42 168.08 625.36 165.29 638.00 165.00 C 650.64 164.71 663.01 166.71 673.75 173.25 C 684.48 179.80 689.53 191.30 691.00 203.00
C 679.24 203.00 661.37 206.87 656.25 196.75 C 651.12 186.64 633.54 183.27 624.31 191.31 C 615.07 199.34 633.18 209.82 643.22 209.78 C 653.26 209.74 666.43 217.57 676.69 220.31 C 686.96 223.04 694.78 235.71 695.00 246.00
L 695.00 0.00
L 411.00 0.00
C 418.39 15.49 391.01 17.86 397.00 0.00
L 115.00 0.00
C 114.90 1.32 115.13 2.68 115.00 4.00
C 115.34 5.26 116.49 6.56 117.78 8.22 C 119.06 9.89 117.49 12.46 118.00 14.00
C 121.70 17.33 122.28 21.85 124.00 27.00
C 124.87 29.60 125.48 31.22 126.00 34.00
C 132.13 51.02 140.88 69.07 145.00 87.00
C 135.67 87.00 126.33 87.00 117.00 87.00
C 115.23 81.60 113.66 76.42 112.00 71.00
C 111.00 67.66 109.73 64.55 109.00 61.00
C 107.08 60.49 106.77 62.84 106.00 64.00
C 102.55 70.17 102.35 85.37 95.00 87.00
C 89.37 88.25 77.61 88.32 72.00 87.00
C 67.42 85.92 73.42 78.04 74.93 72.93 C 76.44 67.81 79.21 61.52 81.33 56.33 C 83.45 51.13 86.14 45.29 87.99 39.99 C 89.84 34.69 92.36 28.95 96.00 25.00
C 92.43 16.93 89.07 8.71 87.00 0.00
L 39.00 0.00
C 39.55 2.97 40.11 5.08 39.00 8.00
C 34.86 18.91 19.12 10.47 25.00 0.00
L 0.00 0.00
L 0.00 20.00
M 268.00 41.00 
C 266.45 44.03 263.57 47.86 260.75 49.75 C 257.94 51.65 265.33 57.04 266.00 59.00
C 266.89 59.74 267.99 60.50 269.00 61.00
C 269.11 60.00 268.53 58.27 270.00 58.00
C 270.20 57.06 269.90 55.96 270.00 55.00
C 271.04 45.11 286.65 56.45 280.67 62.67 C 274.69 68.89 278.09 74.04 282.00 79.00
C 284.97 80.80 289.14 83.19 288.00 88.00
C 283.98 87.81 280.23 86.40 276.00 87.00
C 272.85 86.21 273.78 84.49 272.00 83.00
C 266.05 82.45 262.93 86.23 256.00 88.00
C 250.55 89.39 245.12 89.45 240.00 87.00
C 230.58 82.49 226.67 72.37 230.00 63.00
C 232.34 56.41 235.79 50.94 243.00 48.00
C 241.86 45.46 238.17 44.31 239.00 41.00
C 234.28 30.90 239.75 16.68 254.00 17.00 C 268.26 17.32 273.39 30.46 268.00 41.00
M 220.00 40.00 
C 220.11 40.47 220.11 41.53 220.00 42.00
C 223.76 50.84 220.55 64.92 221.00 75.00 C 221.45 85.08 222.09 99.11 221.00 109.00 C 219.91 118.89 197.73 109.90 191.00 113.00
C 191.62 102.69 190.17 93.41 191.00 83.00 C 191.83 72.59 189.45 62.65 191.00 52.00 C 192.55 41.35 181.57 37.00 177.00 47.00
C 179.19 49.40 176.00 56.50 177.00 60.00 C 178.00 63.50 176.51 68.95 177.00 73.00 C 177.49 77.05 176.63 82.80 177.00 87.00
C 167.33 87.00 157.67 87.00 148.00 87.00
C 148.00 64.67 148.00 42.33 148.00 20.00
C 155.60 22.23 176.08 14.55 174.00 26.00
C 188.13 11.96 219.87 17.13 220.00 40.00
M 469.00 23.00 
C 476.37 26.37 481.94 30.93 484.00 39.00
C 484.99 41.38 485.30 42.99 486.00 46.00
C 487.60 52.87 487.67 57.24 486.00 64.00
C 483.21 75.27 477.69 85.41 465.00 88.00
C 462.14 88.58 461.05 88.18 458.00 88.00
C 449.38 88.36 442.93 87.90 437.00 81.00
C 437.83 90.48 434.29 102.70 436.00 113.00
C 432.74 112.83 422.59 114.52 426.00 109.00
C 425.22 89.71 426.34 70.31 426.00 51.00
C 425.60 28.08 447.88 13.35 469.00 23.00
M 556.00 20.00 
C 557.17 20.14 557.31 20.81 558.00 21.00
C 558.77 20.83 560.21 20.90 561.00 21.00
C 572.85 22.57 577.56 36.94 583.00 44.00
C 582.56 45.29 581.42 46.21 580.00 46.00
C 578.78 51.07 580.10 57.76 580.00 63.00
C 579.61 82.58 560.36 91.85 543.00 88.00
C 538.44 86.99 536.56 85.59 533.00 83.00
C 530.61 81.26 529.82 80.18 528.00 78.00
C 526.20 75.85 525.38 75.02 524.00 72.00
C 518.85 60.74 518.43 48.26 524.00 37.00
C 529.38 26.12 542.78 14.61 556.00 20.00
M 304.00 46.00 
C 305.13 45.41 305.26 44.85 306.00 44.00
C 312.63 36.35 323.80 29.43 330.00 21.00
C 340.35 21.51 351.76 20.33 362.00 21.00 C 372.24 21.67 385.28 18.85 393.00 23.00
C 393.90 24.91 392.33 27.98 393.00 30.00
C 386.00 30.00 379.00 30.00 372.00 30.00
C 372.00 45.33 372.00 60.67 372.00 76.00
C 375.29 82.58 384.60 71.72 381.22 83.22 C 377.84 94.73 362.44 88.54 362.00 77.00
C 361.40 61.36 362.45 45.65 362.00 30.00
C 355.33 30.00 348.67 30.00 342.00 30.00
C 339.70 29.44 340.61 28.41 339.00 27.00
C 332.83 33.47 326.18 40.11 319.00 45.00
C 326.15 60.23 341.75 72.42 348.00 88.00
C 344.27 88.01 340.92 86.34 337.00 87.00
C 331.90 85.62 327.54 76.75 324.08 71.92 C 320.63 67.08 314.05 60.68 312.00 55.00
C 311.84 54.56 312.00 54.00 312.00 54.00
C 298.73 53.64 305.69 78.84 304.00 87.00
C 303.00 87.00 302.00 87.00 301.00 87.00
C 298.35 87.24 295.65 86.82 293.00 87.00
C 294.13 76.61 292.66 66.75 294.00 57.00
C 294.14 51.98 291.98 48.14 293.01 42.99 C 294.04 37.84 290.69 27.78 293.00 23.00
C 294.77 19.35 300.06 21.61 304.00 21.00
C 304.15 29.12 303.80 38.98 304.00 46.00
M 412.00 88.00 
C 409.34 88.10 408.37 88.63 406.00 88.00
C 398.57 86.02 398.18 78.19 399.00 71.00 C 399.82 63.81 397.54 54.08 399.00 47.00 C 400.46 39.92 395.93 29.35 399.00 23.00
C 403.35 14.00 412.78 25.67 410.00 33.00 C 407.22 40.33 411.03 51.67 410.00 59.00 C 408.97 66.33 407.27 79.77 417.00 78.00
C 419.35 81.91 418.15 92.45 412.00 88.00
M 515.00 78.00 
C 522.31 91.04 499.17 92.72 497.10 83.90 C 495.03 75.08 495.57 58.66 496.00 50.00 C 496.43 41.34 491.61 20.57 502.00 21.00 C 512.39 21.43 504.57 43.33 507.00 51.00 C 509.43 58.67 500.56 80.43 515.00 78.00
M 191.00 273.00 
C 190.60 252.77 191.80 231.84 191.00 211.00
C 190.10 187.45 155.73 185.30 149.22 207.22 C 142.71 229.15 151.59 257.87 148.00 280.00
C 137.85 281.93 126.34 277.94 116.00 281.00
C 111.23 275.53 116.18 268.40 115.00 262.00
C 114.16 252.47 114.12 242.12 115.00 233.00
C 114.71 229.86 114.71 226.14 115.00 223.00
C 114.57 218.60 114.58 213.34 115.00 209.00
C 114.71 205.86 114.71 202.14 115.00 199.00
C 114.57 194.60 114.58 189.34 115.00 185.00
C 114.73 182.17 114.73 178.83 115.00 176.00
C 114.54 171.28 114.55 165.65 115.00 161.00
C 114.73 158.17 114.73 154.83 115.00 152.00
C 114.56 147.48 114.92 141.35 115.00 137.00
C 114.61 135.05 115.05 133.23 115.00 132.00
C 114.76 126.09 114.46 119.57 115.00 114.00
C 114.66 110.37 115.26 106.64 115.00 103.00
C 126.00 103.00 137.00 103.00 148.00 103.00
C 148.00 128.33 148.00 153.67 148.00 179.00
C 156.20 175.48 162.08 169.23 171.22 167.22 C 180.36 165.22 193.71 165.22 202.22 168.78 C 210.74 172.33 217.44 175.34 221.77 184.23 C 226.10 193.12 225.12 206.86 225.00 217.00 C 224.88 227.14 225.40 242.55 225.00 252.00 C 224.60 261.45 228.91 281.11 218.00 280.00 C 207.09 278.89 190.48 286.07 191.00 273.00
M 576.00 123.00 
C 575.92 175.67 576.16 227.85 576.00 280.00
C 565.00 280.00 554.00 280.00 543.00 280.00
C 542.89 227.42 543.02 175.85 543.00 123.00
C 554.05 121.14 564.75 123.07 576.00 123.00
M 401.00 147.00 
C 403.24 153.84 401.40 161.74 402.00 169.00
C 414.92 167.91 421.44 167.32 421.00 181.00 C 420.56 194.68 412.17 190.26 402.00 190.00
C 402.64 200.30 402.03 206.01 402.00 216.00 C 401.97 225.99 403.49 234.27 402.00 245.00 C 400.51 255.73 409.04 261.12 420.00 258.00
C 420.00 265.67 420.00 273.33 420.00 281.00
C 402.31 281.59 372.66 285.39 370.00 262.00 C 367.35 238.60 369.90 214.76 369.00 191.00
C 364.71 189.58 353.91 194.18 353.03 187.97 C 352.15 181.76 353.63 175.24 353.00 169.00
C 358.28 168.47 364.15 170.14 369.00 168.00
C 367.86 161.73 370.19 154.53 368.00 148.00
C 378.42 146.11 389.96 148.39 401.00 147.00
M 454.00 233.00 
C 450.75 257.68 488.67 267.55 499.00 246.00
C 510.00 246.00 521.00 246.00 532.00 246.00
C 530.14 255.16 526.18 264.04 518.25 270.25 C 510.32 276.46 502.10 279.79 491.99 281.99 C 481.88 284.20 466.43 283.27 456.78 280.22 C 447.13 277.18 439.85 273.82 432.75 266.25 C 425.65 258.68 422.93 250.69 420.22 240.78 C 417.52 230.87 418.39 216.53 420.78 206.78 C 423.17 197.03 426.91 188.92 433.75 181.75 C 440.60 174.59 447.60 170.48 457.08 167.08 C 466.55 163.67 482.88 164.86 492.22 166.78 C 501.57 168.70 511.78 172.06 518.25 178.75 C 524.72 185.45 530.20 194.66 531.92 203.08 C 533.65 211.49 540.77 232.11 529.00 233.00 C 517.22 233.89 503.12 232.38 491.00 233.00 C 478.88 233.62 466.58 232.71 454.00 233.00 Z"/>
</g>
<g fill="#FFFFFF" fill-opacity="0.68" stroke="None"><path d="
M 39.00 8.00 
C 38.17 9.24 36.19 10.14 35.00 9.00
C 36.17 6.24 36.80 2.61 36.00 0.00
L 25.00 0.00
C 19.12 10.47 34.86 18.91 39.00 8.00 Z"/>
</g>
<g fill="#FFFFFF" fill-opacity="0.41" stroke="None"><path d="
M 39.00 8.00 
C 40.11 5.08 39.55 2.97 39.00 0.00
L 36.00 0.00
C 36.80 2.61 36.17 6.24 35.00 9.00
C 36.19 10.14 38.17 9.24 39.00 8.00 Z"/>
</g>
<g fill="#FFFFFF" fill-opacity="0.87" stroke="None"><path d="
M 72.00 87.00 
C 70.80 86.37 71.14 84.03 71.00 83.00
C 77.36 88.54 90.01 81.37 95.00 87.00
C 102.35 85.37 102.55 70.17 106.00 64.00
C 106.04 65.36 102.94 61.99 104.80 59.75 C 106.66 57.52 106.12 57.03 107.00 54.00
C 113.94 57.01 110.63 65.82 115.00 71.00
C 113.94 72.12 113.16 71.48 112.00 71.00
C 113.66 76.42 115.23 81.60 117.00 87.00
C 126.33 87.00 135.67 87.00 145.00 87.00
C 140.88 69.07 132.13 51.02 126.00 34.00
C 126.45 36.43 126.26 37.96 128.00 40.00
C 122.41 38.35 123.07 30.55 121.00 26.00
C 121.94 26.57 122.82 27.15 124.00 27.00
C 122.28 21.85 121.70 17.33 118.00 14.00
C 114.77 11.10 114.52 9.00 115.00 4.00
C 115.13 2.68 114.90 1.32 115.00 0.00
L 87.00 0.00
C 89.07 8.71 92.43 16.93 96.00 25.00
C 92.36 28.95 89.84 34.69 87.99 39.99 C 86.14 45.29 83.45 51.13 81.33 56.33 C 79.21 61.52 76.44 67.81 74.93 72.93 C 73.42 78.04 67.42 85.92 72.00 87.00 Z"/>
</g>
<g fill="#FFFFFF" fill-opacity="0.65" stroke="None"><path d="
M 411.00 0.00 
L 397.00 0.00
C 391.01 17.86 418.39 15.49 411.00 0.00 Z"/>
</g>
<g fill="#FFFFFF" fill-opacity="0.44" stroke="None"><path d="
M 118.00 14.00 
C 117.49 12.46 119.06 9.89 117.78 8.22 C 116.49 6.56 115.34 5.26 115.00 4.00
C 114.52 9.00 114.77 11.10 118.00 14.00 Z"/>
</g>
<g fill="#FFFFFF" fill-opacity="0.74" stroke="None"><path d="
M 239.00 41.00 
C 239.91 42.04 246.38 45.56 245.00 50.00
C 241.02 50.00 238.61 54.94 235.75 56.75 C 232.90 58.57 231.19 66.28 230.00 63.00
C 226.67 72.37 230.58 82.49 240.00 87.00
C 238.72 86.77 244.62 84.18 248.01 85.99 C 251.40 87.81 257.84 82.94 261.00 85.00
C 259.99 86.65 256.80 85.93 256.00 88.00
C 262.93 86.23 266.05 82.45 272.00 83.00
C 272.04 83.00 276.03 81.07 278.00 84.00
C 278.82 86.01 276.18 85.47 276.00 87.00
C 280.23 86.40 283.98 87.81 288.00 88.00
C 289.14 83.19 284.97 80.80 282.00 79.00
C 278.53 76.90 272.37 75.33 274.00 69.00
C 279.92 68.52 274.64 57.90 279.00 57.00
C 279.31 53.77 275.01 57.09 273.00 56.00
C 274.39 58.17 269.60 61.55 270.00 58.00
C 268.53 58.27 269.11 60.00 269.00 61.00
C 267.99 60.50 266.89 59.74 266.00 59.00
C 266.48 60.41 267.82 62.24 265.00 62.00
C 262.75 58.57 262.15 51.75 257.00 53.00
C 256.69 47.76 264.17 41.04 268.00 41.00
C 273.39 30.46 268.26 17.32 254.00 17.00 C 239.75 16.68 234.28 30.90 239.00 41.00
M 252.00 43.00 
C 248.70 39.29 247.94 34.62 247.00 30.00
C 260.40 19.91 265.02 42.42 252.00 43.00
M 263.00 73.00 
C 254.70 82.86 234.68 75.87 241.93 61.93 C 249.18 47.98 257.99 67.28 263.00 73.00 Z"/>
</g>
<g fill="#FFFFFF" fill-opacity="0.92" stroke="None"><path d="
M 177.00 47.00 
C 176.35 47.86 176.16 47.68 176.00 49.00
C 174.69 59.66 176.61 69.09 176.00 80.00 C 175.39 90.91 159.25 84.20 151.00 86.00
C 157.76 83.70 166.49 85.64 174.00 85.00
C 174.00 73.00 174.00 61.00 174.00 49.00
C 174.77 38.97 184.90 35.27 193.00 41.00
C 193.67 43.05 189.96 47.01 194.00 47.00
C 196.73 53.70 194.34 66.95 195.00 77.00 C 195.66 87.05 194.50 99.72 195.00 110.00
C 202.33 110.00 209.67 110.00 217.00 110.00
C 216.96 86.47 217.05 61.81 217.00 39.00
C 218.28 38.47 218.86 39.97 220.00 40.00
C 219.87 17.13 188.13 11.96 174.00 26.00
C 176.08 14.55 155.60 22.23 148.00 20.00
C 148.00 42.33 148.00 64.67 148.00 87.00
C 157.67 87.00 167.33 87.00 177.00 87.00
C 176.63 82.80 177.49 77.05 177.00 73.00 C 176.51 68.95 178.00 63.50 177.00 60.00 C 176.00 56.50 179.19 49.40 177.00 47.00
M 173.00 23.00 
C 165.95 22.03 155.91 24.55 149.00 22.00
C 156.05 20.99 167.96 19.04 173.00 23.00 Z"/>
</g>
<g fill="#FFFFFF" fill-opacity="0.78" stroke="None"><path d="
M 426.00 51.00 
C 427.09 54.82 428.88 60.98 428.00 67.00 C 427.12 73.02 428.64 79.96 428.00 86.00 C 427.36 92.04 428.84 98.03 428.00 104.00 C 427.16 109.97 430.87 107.51 432.00 110.00
C 434.17 104.91 432.81 96.85 433.00 91.00 C 433.19 85.15 432.74 76.05 437.00 81.00
C 442.93 87.90 449.38 88.36 458.00 88.00
C 455.34 87.84 452.66 88.12 450.00 88.00
C 453.37 85.42 461.66 84.83 467.00 86.00
C 466.92 87.26 464.94 86.56 465.00 88.00
C 477.69 85.41 483.21 75.27 486.00 64.00
C 485.65 61.80 484.00 60.44 484.00 56.00 C 484.00 51.56 485.51 49.36 486.00 46.00
C 485.30 42.99 484.99 41.38 484.00 39.00
C 484.33 40.30 485.57 41.42 485.00 43.00
C 482.63 39.48 478.24 34.67 475.75 31.25 C 473.27 27.83 465.64 22.45 469.00 23.00
C 447.88 13.35 425.60 28.08 426.00 51.00
M 465.00 30.00 
C 470.19 35.71 472.82 38.29 475.33 46.67 C 477.83 55.05 475.04 62.41 474.00 70.00
C 472.56 80.54 455.42 84.82 447.00 80.00
C 446.47 77.22 448.61 79.24 450.00 79.00
C 442.42 77.03 438.10 68.06 437.00 63.00
C 436.60 63.83 436.02 64.87 435.00 65.00
C 434.25 60.14 431.91 50.83 436.00 48.00
C 437.98 44.41 439.46 41.30 440.00 37.00
C 441.48 25.13 455.81 28.11 464.00 27.00
C 464.57 27.94 465.15 28.82 465.00 30.00 Z"/>
</g>
<g fill="#FFFFFF" fill-opacity="0.78" stroke="None"><path d="
M 524.00 37.00 
C 523.70 38.37 526.57 42.25 522.00 41.00
C 525.14 48.57 525.13 59.43 522.00 67.00
C 526.20 64.75 524.65 69.80 524.00 72.00
C 525.38 75.02 526.20 75.85 528.00 78.00
C 528.08 78.02 535.72 78.29 537.00 83.00
C 535.55 85.48 533.89 80.85 533.00 83.00
C 536.56 85.59 538.44 86.99 543.00 88.00
C 550.68 88.52 560.33 86.43 565.92 82.87 C 571.51 79.31 579.02 69.52 580.00 63.00
C 580.10 57.76 578.78 51.07 580.00 46.00
C 578.96 46.52 579.27 47.73 578.00 48.00
C 580.45 35.01 565.47 28.67 561.00 21.00
C 560.21 20.90 558.77 20.83 558.00 21.00
C 554.55 21.76 548.33 23.33 545.00 21.00
C 547.76 18.84 552.49 20.55 556.00 20.00
C 542.78 14.61 529.38 26.12 524.00 37.00
M 554.00 30.00 
C 562.90 31.10 565.27 39.10 570.00 44.00
C 574.98 49.16 574.35 62.07 568.00 68.00
C 562.65 73.00 558.39 80.78 548.00 79.00 C 537.61 77.22 532.34 70.18 531.00 62.00
C 528.87 58.77 526.38 54.77 528.00 49.00
C 529.00 49.00 530.00 49.00 531.00 49.00
C 531.88 42.85 537.02 31.81 544.00 30.00
C 544.55 29.51 548.48 24.90 554.00 27.00
C 554.00 28.00 554.00 29.00 554.00 30.00
M 556.00 81.00 
C 552.33 82.17 545.53 83.61 543.00 80.00
C 546.05 80.12 552.83 79.06 556.00 81.00 Z"/>
</g>
<g fill="#FFFFFF" fill-opacity="0.29" stroke="None"><path d="
M 0.00 22.00 
C 12.80 19.72 25.70 21.14 23.00 35.00 C 20.30 48.86 24.69 57.32 24.00 67.00
C 25.29 66.56 26.21 65.42 26.00 64.00
C 26.19 49.70 25.73 34.64 26.00 21.00
C 17.77 18.90 8.63 20.50 0.00 20.00
L 0.00 22.00 Z"/>
</g>
<g fill="#FFFFFF" fill-opacity="0.25" stroke="None"><path d="
M 39.00 22.00 
C 39.07 22.86 49.43 21.67 52.00 22.00 C 54.57 22.33 63.18 22.25 66.00 21.00
C 62.25 37.99 68.85 60.14 62.00 74.00
C 63.25 73.75 63.39 74.21 64.00 75.00
C 66.44 69.20 67.07 63.12 67.00 56.00 C 66.93 48.88 66.03 40.94 67.00 34.00 C 67.97 27.06 66.62 17.36 59.00 20.00 C 51.38 22.64 42.09 15.61 39.00 22.00 Z"/>
</g>
<g fill="#FFFFFF" fill-opacity="0.35" stroke="None"><path d="
M 558.00 21.00 
C 557.31 20.81 557.17 20.14 556.00 20.00
C 552.49 20.55 547.76 18.84 545.00 21.00
C 548.33 23.33 554.55 21.76 558.00 21.00 Z"/>
</g>
<g fill="#FFFFFF" fill-opacity="0.95" stroke="None"><path d="
M 39.00 22.00 
C 36.39 27.39 39.79 36.84 39.00 43.00 C 38.21 49.16 38.97 56.74 37.78 62.78 C 36.59 68.81 28.07 70.53 26.00 64.00
C 26.21 65.42 25.29 66.56 24.00 67.00
C 24.69 57.32 20.30 48.86 23.00 35.00 C 25.70 21.14 12.80 19.72 0.00 22.00
L 0.00 76.00
C 9.02 90.07 26.57 90.05 42.00 89.00
C 38.08 87.05 52.15 84.93 52.00 85.00
C 53.85 80.46 59.03 77.84 62.00 74.00
C 68.85 60.14 62.25 37.99 66.00 21.00
C 63.18 22.25 54.57 22.33 52.00 22.00 C 49.43 21.67 39.07 22.86 39.00 22.00
M 36.00 69.00 
C 36.23 73.05 30.19 72.80 29.00 70.00
C 30.45 68.04 33.80 69.44 36.00 69.00 Z"/>
</g>
<g fill="#FFFFFF" fill-opacity="0.60" stroke="None"><path d="
M 173.00 23.00 
C 167.96 19.04 156.05 20.99 149.00 22.00
C 155.91 24.55 165.95 22.03 173.00 23.00 Z"/>
</g>
<g fill="#FFFFFF" fill-opacity="0.07" stroke="None"><path d="
M 293.00 23.00 
C 297.92 16.04 305.15 26.29 303.00 31.00 C 300.85 35.71 303.09 46.48 304.00 46.00
C 303.80 38.98 304.15 29.12 304.00 21.00
C 300.06 21.61 294.77 19.35 293.00 23.00 Z"/>
</g>
<g fill="#FFFFFF" fill-opacity="0.75" stroke="None"><path d="
M 306.00 44.00 
C 307.53 42.76 310.59 41.84 312.00 40.00
C 310.58 44.21 305.54 48.07 301.00 48.00
C 301.00 39.67 301.00 31.33 301.00 23.00
C 294.18 21.19 294.40 25.42 295.00 30.00 C 295.60 34.59 294.78 41.87 295.00 46.00 C 295.22 50.13 295.44 59.56 294.00 57.00
C 292.66 66.75 294.13 76.61 293.00 87.00
C 295.65 86.82 298.35 87.24 301.00 87.00
C 301.04 87.00 301.00 86.00 301.00 86.00
C 303.70 80.00 300.53 66.80 302.00 60.00
C 302.67 56.89 304.36 55.89 306.75 52.75 C 309.14 49.61 314.93 49.66 312.00 54.00
C 312.00 54.00 311.84 54.56 312.00 55.00
C 314.35 55.52 321.60 61.19 321.75 64.25 C 321.90 67.30 327.25 71.93 329.30 74.70 C 331.35 77.47 340.16 85.70 337.00 87.00
C 340.92 86.34 344.27 88.01 348.00 88.00
C 341.75 72.42 326.15 60.23 319.00 45.00
C 326.18 40.11 332.83 33.47 339.00 27.00
C 340.61 28.41 339.70 29.44 342.00 30.00
C 340.33 28.89 342.40 24.99 343.00 24.00
C 343.06 23.51 343.00 23.00 343.00 23.00
C 340.59 22.10 351.68 21.37 356.00 22.00 C 360.32 22.63 370.69 20.91 375.00 22.00 C 379.31 23.09 390.38 19.25 393.00 23.00
C 385.28 18.85 372.24 21.67 362.00 21.00 C 351.76 20.33 340.35 21.51 330.00 21.00
C 323.80 29.43 312.63 36.35 306.00 44.00
M 318.00 43.00 
C 318.34 45.46 318.85 47.42 320.00 50.00
C 316.40 50.37 314.12 44.26 318.00 43.00 Z"/>
</g>
<g fill="#FFFFFF" fill-opacity="0.40" stroke="None"><path d="
M 399.00 23.00 
C 400.42 23.72 400.94 23.49 402.00 24.00
C 403.06 24.51 404.34 25.59 406.00 25.00
C 407.82 43.39 402.25 64.20 409.00 81.00
C 413.29 77.47 419.01 79.45 417.00 86.00
C 415.85 88.50 414.25 87.56 412.00 88.00
C 418.15 92.45 419.35 81.91 417.00 78.00
C 407.27 79.77 408.97 66.33 410.00 59.00 C 411.03 51.67 407.22 40.33 410.00 33.00 C 412.78 25.67 403.35 14.00 399.00 23.00 Z"/>
</g>
<g fill="#FFFFFF" fill-opacity="0.66" stroke="None"><path d="
M 515.00 78.00 
C 500.56 80.43 509.43 58.67 507.00 51.00 C 504.57 43.33 512.39 21.43 502.00 21.00 C 491.61 20.57 496.43 41.34 496.00 50.00 C 495.57 58.66 495.03 75.08 497.10 83.90 C 499.17 92.72 522.31 91.04 515.00 78.00
M 509.00 80.00 
C 500.30 79.51 504.62 63.70 504.00 55.00 C 503.38 46.30 503.63 32.25 505.00 24.00
C 507.83 32.59 504.66 45.93 506.00 55.00 C 507.34 64.07 502.28 76.28 509.00 80.00 Z"/>
</g>
<g fill="#FBFBFB" fill-opacity="0.32" stroke="None"><path d="
M 580.00 46.00 
C 581.42 46.21 582.56 45.29 583.00 44.00
C 577.56 36.94 572.85 22.57 561.00 21.00
C 565.47 28.67 580.45 35.01 578.00 48.00
C 579.27 47.73 578.96 46.52 580.00 46.00 Z"/>
</g>
<g fill="#FFFFFF" fill-opacity="0.42" stroke="None"><path d="
M 293.00 23.00 
C 290.69 27.78 294.04 37.84 293.01 42.99 C 291.98 48.14 294.14 51.98 294.00 57.00
C 295.44 59.56 295.22 50.13 295.00 46.00 C 294.78 41.87 295.60 34.59 295.00 30.00 C 294.40 25.42 294.18 21.19 301.00 23.00
C 301.00 31.33 301.00 39.67 301.00 48.00
C 305.54 48.07 310.58 44.21 312.00 40.00
C 310.59 41.84 307.53 42.76 306.00 44.00
C 305.26 44.85 305.13 45.41 304.00 46.00
C 303.09 46.48 300.85 35.71 303.00 31.00 C 305.15 26.29 297.92 16.04 293.00 23.00 Z"/>
</g>
<g fill="#FFFFFF" fill-opacity="0.35" stroke="None"><path d="
M 343.00 23.00 
C 351.02 22.27 362.19 22.70 370.00 23.00 C 377.81 23.30 392.17 19.10 392.00 29.00
C 385.11 26.98 377.29 28.44 370.00 28.00
C 370.00 45.00 370.00 62.00 370.00 79.00
C 371.29 78.56 372.21 77.42 372.00 76.00
C 372.00 60.67 372.00 45.33 372.00 30.00
C 379.00 30.00 386.00 30.00 393.00 30.00
C 392.33 27.98 393.90 24.91 393.00 23.00
C 390.38 19.25 379.31 23.09 375.00 22.00 C 370.69 20.91 360.32 22.63 356.00 22.00 C 351.68 21.37 340.59 22.10 343.00 23.00 Z"/>
</g>
<g fill="#FFFFFF" fill-opacity="0.40" stroke="None"><path d="
M 484.00 39.00 
C 481.94 30.93 476.37 26.37 469.00 23.00
C 465.64 22.45 473.27 27.83 475.75 31.25 C 478.24 34.67 482.63 39.48 485.00 43.00
C 485.57 41.42 484.33 40.30 484.00 39.00 Z"/>
</g>
<g fill="#FFFFFF" fill-opacity="0.86" stroke="None"><path d="
M 343.00 24.00 
C 342.95 24.42 343.53 26.77 343.00 28.00
C 347.88 30.08 362.87 23.91 363.97 31.03 C 365.08 38.15 363.82 47.80 364.00 55.00 C 364.18 62.20 365.49 72.30 362.00 77.00
C 362.44 88.54 377.84 94.73 381.22 83.22 C 384.60 71.72 375.29 82.58 372.00 76.00
C 372.21 77.42 371.29 78.56 370.00 79.00
C 370.00 62.00 370.00 45.00 370.00 28.00
C 377.29 28.44 385.11 26.98 392.00 29.00
C 392.17 19.10 377.81 23.30 370.00 23.00 C 362.19 22.70 351.02 22.27 343.00 23.00
C 343.00 23.00 343.06 23.51 343.00 24.00
M 380.00 85.00 
C 378.93 90.40 369.40 88.12 368.00 86.00
C 371.09 83.81 376.16 85.57 380.00 85.00 Z"/>
</g>
<g fill="#FFFFFF" fill-opacity="0.24" stroke="None"><path d="
M 406.00 88.00 
C 409.08 89.61 405.50 85.52 405.00 85.00
C 403.61 83.56 401.54 82.20 400.00 81.00
C 402.99 62.67 399.01 41.93 402.00 24.00
C 400.94 23.49 400.42 23.72 399.00 23.00
C 395.93 29.35 400.46 39.92 399.00 47.00 C 397.54 54.08 399.82 63.81 399.00 71.00 C 398.18 78.19 398.57 86.02 406.00 88.00 Z"/>
</g>
<g fill="#FFFFFF" fill-opacity="0.46" stroke="None"><path d="
M 342.00 30.00 
C 348.67 30.00 355.33 30.00 362.00 30.00
C 362.45 45.65 361.40 61.36 362.00 77.00
C 365.49 72.30 364.18 62.20 364.00 55.00 C 363.82 47.80 365.08 38.15 363.97 31.03 C 362.87 23.91 347.88 30.08 343.00 28.00
C 343.53 26.77 342.95 24.42 343.00 24.00
C 342.40 24.99 340.33 28.89 342.00 30.00 Z"/>
</g>
<g fill="#FFFFFF" fill-opacity="0.93" stroke="None"><path d="
M 405.00 85.00 
C 406.77 85.53 416.45 83.61 417.00 86.00
C 419.01 79.45 413.29 77.47 409.00 81.00
C 402.25 64.20 407.82 43.39 406.00 25.00
C 404.34 25.59 403.06 24.51 402.00 24.00
C 399.01 41.93 402.99 62.67 400.00 81.00
C 401.54 82.20 403.61 83.56 405.00 85.00 Z"/>
</g>
<g fill="#FFFFFF" fill-opacity="0.57" stroke="None"><path d="
M 509.00 80.00 
C 502.28 76.28 507.34 64.07 506.00 55.00 C 504.66 45.93 507.83 32.59 505.00 24.00
C 503.63 32.25 503.38 46.30 504.00 55.00 C 504.62 63.70 500.30 79.51 509.00 80.00 Z"/>
</g>
<g fill="#FFFFFF" fill-opacity="0.49" stroke="None"><path d="
M 126.00 34.00 
C 125.48 31.22 124.87 29.60 124.00 27.00
C 122.82 27.15 121.94 26.57 121.00 26.00
C 123.07 30.55 122.41 38.35 128.00 40.00
C 126.26 37.96 126.45 36.43 126.00 34.00 Z"/>
</g>
<g fill="#000000" fill-opacity="0.00" stroke="None"><path d="
M 252.00 43.00 
C 265.02 42.42 260.40 19.91 247.00 30.00
C 247.94 34.62 248.70 39.29 252.00 43.00 Z"/>
</g>
<g fill="#FFFFFF" fill-opacity="0.39" stroke="None"><path d="
M 440.00 37.00 
C 444.89 29.42 456.81 29.54 465.00 30.00
C 465.15 28.82 464.57 27.94 464.00 27.00
C 455.81 28.11 441.48 25.13 440.00 37.00 Z"/>
</g>
<g fill="#FFFFFF" fill-opacity="0.34" stroke="None"><path d="
M 544.00 30.00 
C 546.61 29.32 551.32 29.67 554.00 30.00
C 554.00 29.00 554.00 28.00 554.00 27.00
C 548.48 24.90 544.55 29.51 544.00 30.00 Z"/>
</g>
<g fill="#000000" fill-opacity="0.00" stroke="None"><path d="
M 440.00 37.00 
C 439.46 41.30 437.98 44.41 436.00 48.00
C 435.54 51.34 436.43 60.40 437.00 63.00
C 438.10 68.06 442.42 77.03 450.00 79.00
C 458.65 78.57 469.19 77.90 474.00 70.00
C 475.04 62.41 477.83 55.05 475.33 46.67 C 472.82 38.29 470.19 35.71 465.00 30.00
C 456.81 29.54 444.89 29.42 440.00 37.00 Z"/>
</g>
<g fill="#000000" fill-opacity="0.00" stroke="None"><path d="
M 531.00 49.00 
C 530.47 52.73 530.39 58.28 531.00 62.00
C 532.34 70.18 537.61 77.22 548.00 79.00 C 558.39 80.78 562.65 73.00 568.00 68.00
C 570.39 63.51 571.42 49.66 570.00 44.00
C 565.27 39.10 562.90 31.10 554.00 30.00
C 551.32 29.67 546.61 29.32 544.00 30.00
C 537.02 31.81 531.88 42.85 531.00 49.00 Z"/>
</g>
<g fill="#FFFFFF" fill-opacity="0.40" stroke="None"><path d="
M 524.00 72.00 
C 524.65 69.80 526.20 64.75 522.00 67.00
C 525.13 59.43 525.14 48.57 522.00 41.00
C 526.57 42.25 523.70 38.37 524.00 37.00
C 518.43 48.26 518.85 60.74 524.00 72.00 Z"/>
</g>
<g fill="#FFFFFF" fill-opacity="0.26" stroke="None"><path d="
M 174.00 49.00 
C 174.08 48.81 175.52 48.89 176.00 49.00
C 176.16 47.68 176.35 47.86 177.00 47.00
C 181.57 37.00 192.55 41.35 191.00 52.00 C 189.45 62.65 191.83 72.59 191.00 83.00 C 190.17 93.41 191.62 102.69 191.00 113.00
C 197.73 109.90 219.91 118.89 221.00 109.00 C 222.09 99.11 221.45 85.08 221.00 75.00 C 220.55 64.92 223.76 50.84 220.00 42.00
C 217.66 52.13 219.40 62.28 219.00 73.00 C 218.60 83.72 219.19 95.09 219.00 106.00 C 218.81 116.91 200.57 111.04 193.00 111.00
C 195.32 90.17 193.34 68.25 194.00 47.00
C 189.96 47.01 193.67 43.05 193.00 41.00
C 184.90 35.27 174.77 38.97 174.00 49.00 Z"/>
</g>
<g fill="#FFFFFF" fill-opacity="0.72" stroke="None"><path d="
M 194.00 47.00 
C 193.34 68.25 195.32 90.17 193.00 111.00
C 200.57 111.04 218.81 116.91 219.00 106.00 C 219.19 95.09 218.60 83.72 219.00 73.00 C 219.40 62.28 217.66 52.13 220.00 42.00
C 220.11 41.53 220.11 40.47 220.00 40.00
C 218.86 39.97 218.28 38.47 217.00 39.00
C 217.05 61.81 216.96 86.47 217.00 110.00
C 209.67 110.00 202.33 110.00 195.00 110.00
C 194.50 99.72 195.66 87.05 195.00 77.00 C 194.34 66.95 196.73 53.70 194.00 47.00 Z"/>
</g>
<g fill="#FFFFFF" fill-opacity="0.29" stroke="None"><path d="
M 239.00 41.00 
C 238.17 44.31 241.86 45.46 243.00 48.00
C 235.79 50.94 232.34 56.41 230.00 63.00
C 231.19 66.28 232.90 58.57 235.75 56.75 C 238.61 54.94 241.02 50.00 245.00 50.00
C 246.38 45.56 239.91 42.04 239.00 41.00 Z"/>
</g>
<g fill="#FFFFFF" fill-opacity="0.37" stroke="None"><path d="
M 266.00 59.00 
C 265.33 57.04 257.94 51.65 260.75 49.75 C 263.57 47.86 266.45 44.03 268.00 41.00
C 264.17 41.04 256.69 47.76 257.00 53.00
C 262.15 51.75 262.75 58.57 265.00 62.00
C 267.82 62.24 266.48 60.41 266.00 59.00 Z"/>
</g>
<g fill="#FFFFFF" fill-opacity="0.51" stroke="None"><path d="
M 318.00 43.00 
C 314.12 44.26 316.40 50.37 320.00 50.00
C 318.85 47.42 318.34 45.46 318.00 43.00 Z"/>
</g>
<g fill="#FFFFFF" fill-opacity="0.40" stroke="None"><path d="
M 570.00 44.00 
C 571.42 49.66 570.39 63.51 568.00 68.00
C 574.35 62.07 574.98 49.16 570.00 44.00 Z"/>
</g>
<g fill="#FFFFFF" fill-opacity="0.38" stroke="None"><path d="
M 486.00 64.00 
C 487.67 57.24 487.60 52.87 486.00 46.00
C 485.51 49.36 484.00 51.56 484.00 56.00 C 484.00 60.44 485.65 61.80 486.00 64.00 Z"/>
</g>
<g fill="#FFFFFF" fill-opacity="0.39" stroke="None"><path d="
M 437.00 63.00 
C 436.43 60.40 435.54 51.34 436.00 48.00
C 431.91 50.83 434.25 60.14 435.00 65.00
C 436.02 64.87 436.60 63.83 437.00 63.00 Z"/>
</g>
<g fill="#FFFFFF" fill-opacity="0.52" stroke="None"><path d="
M 176.00 49.00 
C 175.52 48.89 174.08 48.81 174.00 49.00
C 174.00 61.00 174.00 73.00 174.00 85.00
C 166.49 85.64 157.76 83.70 151.00 86.00
C 159.25 84.20 175.39 90.91 176.00 80.00 C 176.61 69.09 174.69 59.66 176.00 49.00 Z"/>
</g>
<g fill="#FFFFFF" fill-opacity="0.51" stroke="None"><path d="
M 531.00 62.00 
C 530.39 58.28 530.47 52.73 531.00 49.00
C 530.00 49.00 529.00 49.00 528.00 49.00
C 526.38 54.77 528.87 58.77 531.00 62.00 Z"/>
</g>
<g fill="#FFFFFF" fill-opacity="0.31" stroke="None"><path d="
M 302.00 60.00 
C 302.19 64.33 306.40 83.54 301.00 86.00
C 301.00 86.00 301.04 87.00 301.00 87.00
C 302.00 87.00 303.00 87.00 304.00 87.00
C 305.69 78.84 298.73 53.64 312.00 54.00
C 314.93 49.66 309.14 49.61 306.75 52.75 C 304.36 55.89 302.67 56.89 302.00 60.00 Z"/>
</g>
<g fill="#FFFFFF" fill-opacity="0.60" stroke="None"><path d="
M 426.00 109.00 
C 426.45 110.18 428.62 110.09 428.00 112.00
C 429.69 111.86 434.06 112.84 432.00 110.00
C 430.87 107.51 427.16 109.97 428.00 104.00 C 428.84 98.03 427.36 92.04 428.00 86.00 C 428.64 79.96 427.12 73.02 428.00 67.00 C 428.88 60.98 427.09 54.82 426.00 51.00
C 426.34 70.31 425.22 89.71 426.00 109.00 Z"/>
</g>
<g fill="#FFFFFF" fill-opacity="0.32" stroke="None"><path d="
M 270.00 55.00 
C 271.54 50.95 280.38 51.91 279.00 57.00
C 274.64 57.90 279.92 68.52 274.00 69.00
C 272.37 75.33 278.53 76.90 282.00 79.00
C 278.09 74.04 274.69 68.89 280.67 62.67 C 286.65 56.45 271.04 45.11 270.00 55.00 Z"/>
</g>
<g fill="#FFFFFF" fill-opacity="0.49" stroke="None"><path d="
M 270.00 55.00 
C 269.90 55.96 270.20 57.06 270.00 58.00
C 269.60 61.55 274.39 58.17 273.00 56.00
C 275.01 57.09 279.31 53.77 279.00 57.00
C 280.38 51.91 271.54 50.95 270.00 55.00 Z"/>
</g>
<g fill="#FFFFFF" fill-opacity="0.37" stroke="None"><path d="
M 106.00 64.00 
C 106.77 62.84 107.08 60.49 109.00 61.00
C 109.73 64.55 111.00 67.66 112.00 71.00
C 113.16 71.48 113.94 72.12 115.00 71.00
C 110.63 65.82 113.94 57.01 107.00 54.00
C 106.12 57.03 106.66 57.52 104.80 59.75 C 102.94 61.99 106.04 65.36 106.00 64.00 Z"/>
</g>
<g fill="#FFFFFF" fill-opacity="0.36" stroke="None"><path d="
M 337.00 87.00 
C 340.16 85.70 331.35 77.47 329.30 74.70 C 327.25 71.93 321.90 67.30 321.75 64.25 C 321.60 61.19 314.35 55.52 312.00 55.00
C 314.05 60.68 320.63 67.08 324.08 71.92 C 327.54 76.75 331.90 85.62 337.00 87.00 Z"/>
</g>
<g fill="#000000" fill-opacity="0.00" stroke="None"><path d="
M 263.00 73.00 
C 257.99 67.28 249.18 47.98 241.93 61.93 C 234.68 75.87 254.70 82.86 263.00 73.00 Z"/>
</g>
<g fill="#FFFFFF" fill-opacity="0.45" stroke="None"><path d="
M 301.00 86.00 
C 306.40 83.54 302.19 64.33 302.00 60.00
C 300.53 66.80 303.70 80.00 301.00 86.00 Z"/>
</g>
<g fill="#FFFFFF" fill-opacity="0.24" stroke="None"><path d="
M 543.00 88.00 
C 560.36 91.85 579.61 82.58 580.00 63.00
C 579.02 69.52 571.51 79.31 565.92 82.87 C 560.33 86.43 550.68 88.52 543.00 88.00 Z"/>
</g>
<g fill="#FFFFFF" fill-opacity="0.60" stroke="None"><path d="
M 36.00 69.00 
C 33.80 69.44 30.45 68.04 29.00 70.00
C 30.19 72.80 36.23 73.05 36.00 69.00 Z"/>
</g>
<g fill="#FFFFFF" fill-opacity="0.37" stroke="None"><path d="
M 450.00 79.00 
C 448.61 79.24 446.47 77.22 447.00 80.00
C 455.42 84.82 472.56 80.54 474.00 70.00
C 469.19 77.90 458.65 78.57 450.00 79.00 Z"/>
</g>
<g fill="#FFFFFF" fill-opacity="0.49" stroke="None"><path d="
M 52.00 85.00 
C 53.73 84.20 54.22 82.59 55.00 81.00
C 56.14 81.93 57.55 82.08 59.00 82.00
C 61.95 79.46 62.95 77.49 64.00 75.00
C 63.39 74.21 63.25 73.75 62.00 74.00
C 59.03 77.84 53.85 80.46 52.00 85.00 Z"/>
</g>
<g fill="#FFFFFF" fill-opacity="0.51" stroke="None"><path d="
M 528.00 78.00 
C 529.82 80.18 530.61 81.26 533.00 83.00
C 533.89 80.85 535.55 85.48 537.00 83.00
C 535.72 78.29 528.08 78.02 528.00 78.00 Z"/>
</g>
<g fill="#FFFFFF" fill-opacity="0.41" stroke="None"><path d="
M 432.00 110.00 
C 434.06 112.84 429.69 111.86 428.00 112.00
C 428.62 110.09 426.45 110.18 426.00 109.00
C 422.59 114.52 432.74 112.83 436.00 113.00
C 434.29 102.70 437.83 90.48 437.00 81.00
C 432.74 76.05 433.19 85.15 433.00 91.00 C 432.81 96.85 434.17 104.91 432.00 110.00 Z"/>
</g>
<g fill="#FFFFFF" fill-opacity="0.64" stroke="None"><path d="
M 556.00 81.00 
C 552.83 79.06 546.05 80.12 543.00 80.00
C 545.53 83.61 552.33 82.17 556.00 81.00 Z"/>
</g>
<g fill="#FFFFFF" fill-opacity="0.28" stroke="None"><path d="
M 52.00 85.00 
C 52.15 84.93 38.08 87.05 42.00 89.00
C 48.54 88.55 54.17 86.16 59.00 82.00
C 57.55 82.08 56.14 81.93 55.00 81.00
C 54.22 82.59 53.73 84.20 52.00 85.00 Z"/>
</g>
<g fill="#FFFFFF" fill-opacity="0.43" stroke="None"><path d="
M 272.00 83.00 
C 273.78 84.49 272.85 86.21 276.00 87.00
C 276.18 85.47 278.82 86.01 278.00 84.00
C 276.03 81.07 272.04 83.00 272.00 83.00 Z"/>
</g>
<g fill="#FFFFFF" fill-opacity="0.39" stroke="None"><path d="
M 72.00 87.00 
C 77.61 88.32 89.37 88.25 95.00 87.00
C 90.01 81.37 77.36 88.54 71.00 83.00
C 71.14 84.03 70.80 86.37 72.00 87.00 Z"/>
</g>
<g fill="#FFFFFF" fill-opacity="0.33" stroke="None"><path d="
M 240.00 87.00 
C 245.12 89.45 250.55 89.39 256.00 88.00
C 256.80 85.93 259.99 86.65 261.00 85.00
C 257.84 82.94 251.40 87.81 248.01 85.99 C 244.62 84.18 238.72 86.77 240.00 87.00 Z"/>
</g>
<g fill="#FFFFFF" fill-opacity="0.57" stroke="None"><path d="
M 380.00 85.00 
C 376.16 85.57 371.09 83.81 368.00 86.00
C 369.40 88.12 378.93 90.40 380.00 85.00 Z"/>
</g>
<g fill="#FFFFFF" fill-opacity="0.53" stroke="None"><path d="
M 406.00 88.00 
C 408.37 88.63 409.34 88.10 412.00 88.00
C 414.25 87.56 415.85 88.50 417.00 86.00
C 416.45 83.61 406.77 85.53 405.00 85.00
C 405.50 85.52 409.08 89.61 406.00 88.00 Z"/>
</g>
<g fill="#FFFFFF" fill-opacity="0.46" stroke="None"><path d="
M 458.00 88.00 
C 461.05 88.18 462.14 88.58 465.00 88.00
C 464.94 86.56 466.92 87.26 467.00 86.00
C 461.66 84.83 453.37 85.42 450.00 88.00
C 452.66 88.12 455.34 87.84 458.00 88.00 Z"/>
</g>
<g fill="#FFFFFF" fill-opacity="0.97" stroke="None"><path d="
M 115.00 114.00 
C 115.55 119.88 115.78 128.62 115.00 132.00
C 115.05 133.23 114.61 135.05 115.00 137.00
C 116.05 142.32 115.49 146.77 115.00 152.00
C 114.73 154.83 114.73 158.17 115.00 161.00
C 115.49 166.19 115.49 170.83 115.00 176.00
C 114.73 178.83 114.73 182.17 115.00 185.00
C 115.46 189.87 115.46 194.14 115.00 199.00
C 114.71 202.14 114.71 205.86 115.00 209.00
C 115.46 213.87 115.46 218.14 115.00 223.00
C 114.71 226.14 114.71 229.86 115.00 233.00
C 115.89 242.51 115.88 252.89 115.00 262.00
C 116.18 268.40 111.23 275.53 116.00 281.00
C 126.34 277.94 137.85 281.93 148.00 280.00
C 151.59 257.87 142.71 229.15 149.22 207.22 C 155.73 185.30 190.10 187.45 191.00 211.00
C 193.22 219.32 191.84 230.68 193.00 241.00 C 194.16 251.32 192.55 264.90 191.00 273.00
C 190.48 286.07 207.09 278.89 218.00 280.00 C 228.91 281.11 224.60 261.45 225.00 252.00 C 225.40 242.55 224.88 227.14 225.00 217.00 C 225.12 206.86 226.10 193.12 221.77 184.23 C 217.44 175.34 210.74 172.33 202.22 168.78 C 193.71 165.22 180.36 165.22 171.22 167.22 C 162.08 169.23 156.20 175.48 148.00 179.00
C 148.00 153.67 148.00 128.33 148.00 103.00
C 137.00 103.00 126.00 103.00 115.00 103.00
C 115.26 106.64 114.66 110.37 115.00 114.00 Z"/>
</g>
<g fill="#FFFFFF" fill-opacity="0.43" stroke="None"><path d="
M 115.00 132.00 
C 115.78 128.62 115.55 119.88 115.00 114.00
C 114.46 119.57 114.76 126.09 115.00 132.00 Z"/>
</g>
<g fill="#FFFFFF" fill-opacity="0.96" stroke="None"><path d="
M 576.00 123.00 
C 564.75 123.07 554.05 121.14 543.00 123.00
C 543.02 175.85 542.89 227.42 543.00 280.00
C 554.00 280.00 565.00 280.00 576.00 280.00
C 576.16 227.85 575.92 175.67 576.00 123.00 Z"/>
</g>
<g fill="#FFFFFF" fill-opacity="0.41" stroke="None"><path d="
M 115.00 152.00 
C 115.49 146.77 116.05 142.32 115.00 137.00
C 114.92 141.35 114.56 147.48 115.00 152.00 Z"/>
</g>
<g fill="#FFFFFF" fill-opacity="0.96" stroke="None"><path d="
M 401.00 147.00 
C 389.96 148.39 378.42 146.11 368.00 148.00
C 370.19 154.53 367.86 161.73 369.00 168.00
C 364.15 170.14 358.28 168.47 353.00 169.00
C 353.63 175.24 352.15 181.76 353.03 187.97 C 353.91 194.18 364.71 189.58 369.00 191.00
C 369.90 214.76 367.35 238.60 370.00 262.00 C 372.66 285.39 402.31 281.59 420.00 281.00
C 420.00 273.33 420.00 265.67 420.00 258.00
C 409.04 261.12 400.51 255.73 402.00 245.00 C 403.49 234.27 401.97 225.99 402.00 216.00 C 402.03 206.01 402.64 200.30 402.00 190.00
C 412.17 190.26 420.56 194.68 421.00 181.00 C 421.44 167.32 414.92 167.91 402.00 169.00
C 401.40 161.74 403.24 153.84 401.00 147.00 Z"/>
</g>
<g fill="#FFFFFF" fill-opacity="0.41" stroke="None"><path d="
M 115.00 176.00 
C 115.49 170.83 115.49 166.19 115.00 161.00
C 114.55 165.65 114.54 171.28 115.00 176.00 Z"/>
</g>
<g fill="#FFFFFF" fill-opacity="0.98" stroke="None"><path d="
M 286.00 283.00 
C 287.47 281.43 300.75 283.00 304.00 283.00
C 350.63 283.00 373.62 225.58 348.75 190.25 C 323.89 154.91 267.33 156.23 242.30 190.30 C 217.28 224.38 240.19 283.97 286.00 283.00 Z"/>
</g>
<g fill="#FFFFFF" fill-opacity="0.97" stroke="None"><path d="
M 454.00 233.00 
C 466.58 232.71 478.88 233.62 491.00 233.00 C 503.12 232.38 517.22 233.89 529.00 233.00 C 540.77 232.11 533.65 211.49 531.92 203.08 C 530.20 194.66 524.72 185.45 518.25 178.75 C 511.78 172.06 501.57 168.70 492.22 166.78 C 482.88 164.86 466.55 163.67 457.08 167.08 C 447.60 170.48 440.60 174.59 433.75 181.75 C 426.91 188.92 423.17 197.03 420.78 206.78 C 418.39 216.53 417.52 230.87 420.22 240.78 C 422.93 250.69 425.65 258.68 432.75 266.25 C 439.85 273.82 447.13 277.18 456.78 280.22 C 466.43 283.27 481.88 284.20 491.99 281.99 C 502.10 279.79 510.32 276.46 518.25 270.25 C 526.18 264.04 530.14 255.16 532.00 246.00
C 521.00 246.00 510.00 246.00 499.00 246.00
C 488.67 267.55 450.75 257.68 454.00 233.00 Z"/>
</g>
<g fill="#FEFEFE" fill-opacity="0.95" stroke="None"><path d="
M 639.00 284.00 
L 645.00 284.00
C 665.60 282.39 692.68 273.32 695.00 249.00
L 695.00 246.00
C 694.78 235.71 686.96 223.04 676.69 220.31 C 666.43 217.57 653.26 209.74 643.22 209.78 C 633.18 209.82 615.07 199.34 624.31 191.31 C 633.54 183.27 651.12 186.64 656.25 196.75 C 661.37 206.87 679.24 203.00 691.00 203.00
C 689.53 191.30 684.48 179.80 673.75 173.25 C 663.01 166.71 650.64 164.71 638.00 165.00 C 625.36 165.29 612.42 168.08 602.25 175.25 C 592.07 182.41 586.53 193.93 589.00 206.00 C 591.48 218.06 599.10 226.52 611.98 230.02 C 624.86 233.53 634.08 236.92 648.93 239.07 C 663.78 241.22 662.74 259.31 647.00 259.00 C 631.26 258.69 620.55 258.79 617.00 243.00
C 605.67 243.00 594.33 243.00 583.00 243.00
C 582.58 272.44 614.60 284.33 639.00 284.00 Z"/>
</g>
<g fill="#FFFFFF" fill-opacity="0.41" stroke="None"><path d="
M 115.00 199.00 
C 115.46 194.14 115.46 189.87 115.00 185.00
C 114.58 189.34 114.57 194.60 115.00 199.00 Z"/>
</g>
<g fill="#FFFFFF" fill-opacity="0.42" stroke="None"><path d="
M 115.00 223.00 
C 115.46 218.14 115.46 213.87 115.00 209.00
C 114.58 213.34 114.57 218.60 115.00 223.00 Z"/>
</g>
<g fill="#FFFFFF" fill-opacity="0.43" stroke="None"><path d="
M 191.00 273.00 
C 192.55 264.90 194.16 251.32 193.00 241.00 C 191.84 230.68 193.22 219.32 191.00 211.00
C 191.80 231.84 190.60 252.77 191.00 273.00 Z"/>
</g>
<g fill="#FFFFFF" fill-opacity="0.45" stroke="None"><path d="
M 115.00 262.00 
C 115.88 252.89 115.89 242.51 115.00 233.00
C 114.12 242.12 114.16 252.47 115.00 262.00 Z"/>
</g>
<g fill="#000000" fill-opacity="0.00" stroke="None"><path d="
M 645.00 284.00 
L 695.00 284.00
L 695.00 249.00
C 692.68 273.32 665.60 282.39 645.00 284.00 Z"/>
</g>
<g fill="#FFFFFF" fill-opacity="0.17" stroke="None"><path d="
M 286.00 283.00 
C 286.00 283.00 286.00 283.50 286.00 284.00
L 304.00 284.00
C 304.00 284.00 304.04 283.00 304.00 283.00
C 300.75 283.00 287.47 281.43 286.00 283.00 Z"/>
</g>
</svg>